<?xml version="1.0" encoding="UTF-8"?>
<!DOCTYPE svg PUBLIC "-//W3C//DTD SVG 1.1//EN" "http://www.w3.org/Graphics/SVG/1.1/DTD/svg11.dtd">
<!-- Creator: CorelDRAW -->
<svg xmlns="http://www.w3.org/2000/svg" xml:space="preserve" width="177.825mm" height="91.1962mm" version="1.1" style="shape-rendering:geometricPrecision; text-rendering:geometricPrecision; image-rendering:optimizeQuality; fill-rule:evenodd; clip-rule:evenodd"
viewBox="0 0 10058.77 5158.57"
 xmlns:xlink="http://www.w3.org/1999/xlink"
 xmlns:xodm="http://www.corel.com/coreldraw/odm/2003">
 <defs>
  <style type="text/css">
   <![CDATA[
    .fil0 {fill:none}
    .fil3 {fill:#0D72B9}
    .fil7 {fill:#22B473}
    .fil2 {fill:#26265E}
    .fil8 {fill:#662F8E}
    .fil6 {fill:#D31C5B}
    .fil4 {fill:#F05A26}
    .fil5 {fill:#FAAF3B}
    .fil1 {fill:#FAAF3B}
   ]]>
  </style>
     <clipPath id="id0">
      <path d="M2613.74 33.83c1405.81,0 2545.45,1139.64 2545.45,2545.45 0,1405.81 -1139.64,2545.45 -2545.45,2545.45 -1405.81,0 -2545.45,-1139.64 -2545.45,-2545.45 0,-1405.81 1139.64,-2545.45 2545.45,-2545.45z"/>
     </clipPath>
 </defs>
 <g id="Camada_x0020_1">
  <metadata id="CorelCorpID_0Corel-Layer"/>
  <g id="_2209820884864">
   <rect class="fil0" width="10058.77" height="5158.57"/>
   <g>
    <path class="fil1" d="M2613.74 33.83c1405.81,0 2545.45,1139.64 2545.45,2545.45 0,1405.81 -1139.64,2545.45 -2545.45,2545.45 -1405.81,0 -2545.45,-1139.64 -2545.45,-2545.45 0,-1405.81 1139.64,-2545.45 2545.45,-2545.45z"/>
    <g style="clip-path:url(#id0)">
     <g>
      <g>
       <path id="_1" class="fil2" d="M1162.76 4080.75c2.37,-2.91 23.34,-58.29 30.86,-72.56 6.3,-11.96 11.44,-23.41 17.46,-35.07 26.99,-52.32 35.94,-66.96 9.99,-114.9 -29.96,-55.33 -26.36,-113.99 -32.89,-175.78 -27,-255.63 -44.66,-537.88 -40.63,-793.39 0.24,-15.45 -0.98,-62.78 2.48,-75.94 2.29,-8.74 4.32,-13.82 -1.97,-20.2 -4.4,-4.45 -9.05,-6.65 -10.97,-15.27 -5.14,-23.08 1.88,-73.05 2.94,-98.37 0.41,-10.1 -3.01,-15.36 -2.88,-23.88 0.28,-18.56 15.83,-19.13 26.06,-27.39 -0.69,-9.52 -4.3,-7.83 -3.61,-29.33 1.19,-36.94 1.66,-57.56 8.08,-95.75 6.11,-36.34 17.91,-77 36,-102.2 21.96,-30.59 43.7,-36.69 89.61,-47.42 65.71,-15.35 21.86,-27.6 69.26,-34.43 12.71,-1.83 17.84,-3.6 28.47,-6.65 10.12,-10.95 11.6,-11.39 14.33,-35.39 1.89,-16.69 2.65,-27.41 6.68,-43.5 -43.57,-4.18 -57.76,-56.95 -70.84,-90.08 -5.96,-15.09 -18.19,-45.16 -19.8,-61.22 -3.5,-34.86 -12.2,-39.22 -14.96,-66.38 -2.27,-22.28 -1.1,-54.14 4.43,-75.17 5.25,-19.98 24.38,-27.07 45.43,-35.56 43.09,-17.4 87.03,-25.88 135.4,-12.31 43.23,12.13 78.2,32.81 106.13,55.97 14.12,11.71 31.95,23.04 28.4,52.37 -2.36,19.51 -10.19,46.21 -15.59,65.33 -11.47,40.57 -22.83,86.4 -38.58,123.54 -9.05,21.34 -22.73,32.57 -17.6,62.15 2.36,13.56 14.64,50.71 21.11,59.79 21.64,5.29 26.48,-6.57 48.75,7.23 23.23,14.4 120.94,19.08 148.77,19.66 40.8,0.86 119.7,1.09 159.03,8.71 16.3,3.16 28.24,8.71 45.95,10.06 0.33,-18.69 12.43,-52.44 18.28,-69.92 5.9,-17.6 17.82,-50.85 19.18,-69.52 1.13,-15.59 -9.96,-17.66 -14.63,-30.02 -3.54,-9.37 3.56,-25.46 6.3,-35.03 32.94,-115.1 93.22,-399.42 140.06,-478.53 34.09,-57.58 89.82,-24.53 117.72,-59.93 15.82,-20.07 23.57,-24.64 52.26,-35.95 21.47,-8.46 46.06,-17.33 72.06,-16.69 13.95,0.35 30.45,2.3 44.13,0.69 8.02,-0.95 9.72,-2.7 12.8,-8.74 6.41,-12.55 11.47,-38.74 13.94,-52.78 1.91,-10.85 6.36,-30.12 6.49,-38.74 -6.26,-6.4 -19.42,-10.1 -45.73,-39.96 -11.53,-13.08 -23.58,-34.14 -31.61,-54.22 -17.88,-44.69 -22.65,-98.58 -19.92,-151.11 4.63,-88.88 53.07,-176.07 142.38,-201.75 47.03,-9.57 97.23,-4.83 142.39,6.98 34.52,9.03 79.93,30.77 101.69,56.8 67.21,80.39 46.8,228.45 5.09,315.13 -15.15,31.47 -14.64,25.43 -31.01,47.61 -11.58,15.68 -8.32,48.19 0.64,65.42 11,21.15 32.5,19.02 60.43,17.8 52.76,-2.3 93.2,-9.71 146.32,0.79 44.53,8.8 81.92,29.55 102.08,55.19 22.3,28.35 31.89,74.81 41.88,116.6 19.5,81.5 37.61,180.61 53.17,263.95 11.65,62.4 37.08,142.87 22.05,207.16 -3.99,17.09 -2.64,15.62 0.35,32.72 1.95,11.1 3.86,22.38 5.78,33.55 3.21,18.62 64.62,398.82 64.57,409.87l23.48 137.38c4.05,23.11 8.19,45.63 12.38,68.66 4,22.01 9.97,46.3 12.96,68.13l214.22 45.54 22.15 -237.57c2.39,-25.05 0.6,-126.52 0.59,-156.19 1.46,-49.47 1.91,-144.14 37.73,-178.29 16.53,-15.74 40.78,-30.36 68.79,-38.52 23.97,-6.97 55.58,-2.56 71.95,-9.08 9.62,-3.84 5.23,-10.62 10.67,-16.75l13.06 -13.15c4.75,-4.55 8.33,-8.55 10.64,-16.74 16.96,-60.03 -80.07,-167.12 -81.28,-237.59 -0.35,-20.58 7.69,-27.26 19.87,-34.82 50.74,-31.46 28.83,-28.44 56.36,-50.89 48.82,-39.82 131.2,-44.45 185.48,-10.46 6.31,3.95 10.08,8.08 15.16,12.28 12.61,10.42 22.54,9.65 39.49,15.33 52.93,17.72 0.22,71.83 -13.1,101.37 -6.47,14.33 -5.31,30.69 -7.92,46.99 -5.3,33.1 -25.61,45.53 -37.2,71.22 -14.08,31.22 -4.99,62.96 -4.99,97.65 15.49,6.02 15.64,1.6 26.81,13.59 25.69,27.6 13.65,30.56 79.29,43.39 47.33,9.25 93.42,16.57 117.59,46.64 21.66,18.48 33.12,95.32 36.5,124.96 5.57,48.82 7.62,101.82 8.62,152.16 2.06,104.29 7.94,206.37 12.59,309.88 4.56,101.26 9.55,203.35 16.63,303.85 5.2,73.92 14.03,147.27 20.61,220.71 2.14,23.91 2.62,52.08 5.86,75.23 8.19,4.36 27.11,6.18 38.13,10.71 17.88,7.36 15.7,13.07 8.8,32.02 -6.82,18.72 -22.12,56.76 -24.27,76.24 38.32,2.81 36.48,42.38 39.62,49.34 3.3,-3.17 6.77,-9.16 9.87,-13.32l70.48 -101.17c6.82,-10.18 12.35,-19.51 19.09,-29.78 6.7,-10.23 12.08,-20.47 18.58,-30.29 3.12,-4.71 5.94,-9.54 9.03,-14.81 3.36,-5.71 6.09,-10.19 9.21,-15.81 25.22,-45.34 44.91,-80.2 68.37,-127.11 2.88,-5.78 5.03,-10.11 7.95,-15.89l15.49 -33.39c28.67,-61.82 56.39,-126.72 77.83,-191.54 2.15,-6.52 3.68,-11.42 5.95,-17.9 15.27,-43.67 27.17,-86.78 40.22,-131.42 24.32,-83.22 44.83,-201.74 55.95,-286.13l11.56 -123.13c0.95,-19.06 3.71,-39.47 3.6,-58.39 -0.27,-47.42 3.74,-98.03 1.18,-145.44 -2.48,-45.86 -3.8,-92.42 -8.54,-138.07 -1.47,-14.19 -3.28,-29.4 -4.69,-44.18 -9.23,-96.53 -36.49,-234.66 -63.48,-327.48 -7.51,-25.84 -14.1,-50.56 -22.38,-75.36l-65.73 -178.6c-61.48,-142.38 -122.75,-257.79 -212.32,-387.23 -18.23,-26.35 -36.56,-53.12 -56.56,-78.13l-15.67 -20.09c-1.92,-2.51 -3.49,-4.79 -5.67,-7.44 -7.5,-9.12 -14.64,-18.06 -21.72,-27.15l-33.09 -39.62c-2.7,-2.84 -3.03,-3.66 -5.42,-6.51 -13.07,-15.54 -39.36,-45.6 -52.38,-58.47 -4.69,-4.63 -7.33,-7.22 -11.45,-12.38 -8.5,-10.65 -20.48,-20.65 -29.69,-31.1 -2.16,-2.45 -4.19,-4.21 -6.54,-6.57 -14.29,-14.28 -41.18,-42.01 -55.9,-53.75l-63.83 -57.75c-3,-2.54 -3.6,-3.46 -7.01,-6.11l-39.53 -33.18c-4.63,-4.13 -8.89,-7.27 -13.79,-11.23l-140.51 -103.83c-19.52,-13.02 -38.77,-26.83 -58.98,-38.76 -25.58,-15.1 -49.85,-31.52 -75.88,-45.69l-71.5 -39.35c-26.96,-14.52 -80.1,-41.06 -107.39,-52.33 -48.46,-20.04 -85.46,-38.05 -138.5,-56.97 -54.6,-19.48 -109.49,-37.87 -165.62,-53.7 -7.03,-1.98 -12.72,-3.77 -19.58,-5.46 -12.9,-3.17 -25.26,-6.61 -38.85,-10.01 -83.02,-20.75 -162.21,-34.02 -246.84,-46.37 -13.62,-1.99 -28.89,-3.04 -43.78,-5.1l-44.75 -4.11c-29.54,-1.64 -62.21,-6.06 -91.81,-5.93 -30.78,0.13 -64.34,-2.29 -95.39,-2.41 -8.6,-0.03 -13.17,1.26 -22.61,1.23 -32.99,-0.12 -87.44,1.22 -118.18,4.59 -22.65,2.48 -45.31,2.48 -67.43,5.28 -49.6,6.29 -103.46,11.3 -152.02,20.8 -14.12,2.77 -27.42,4.76 -41.32,7.55 -13.52,2.72 -26.91,5.52 -40.53,8.34 -103.14,21.3 -204.57,51.41 -302.15,88.8 -35.26,13.51 -70.21,26.88 -104.36,42.24l-66.76 30.98c-5.37,2.7 -10.58,4.66 -16.3,7.54 -6.02,3.03 -10.64,5.32 -16.68,8.34l-63.96 33.78c-79.81,42.84 -124.63,73.74 -196.05,121.01 -5.2,3.44 -9.76,6.65 -14.72,10.31 -9.5,7.02 -18.9,13.76 -28.42,20.45 -38.52,27.05 -73.7,57.95 -110.17,86.5 -18.18,14.23 -35.36,29.83 -52.22,45.51 -12.54,11.66 -26.1,22.35 -38.16,34.55 -4.4,4.45 -7.99,8.21 -12.48,12.55 -2.79,2.68 -3.84,2.94 -6.57,5.35 -11.02,9.71 -51.93,50.73 -60.32,61.25 -2.11,2.64 -3.98,4.23 -6.43,6.67 -4.04,4.03 -8.22,7.75 -11.91,11.93l-46.38 51.37c-18.06,22.6 -37.91,44.06 -55.99,66.76 -46.79,58.75 -92.35,120.38 -133.12,183.95l-82.08 138.43 -79.91 164.44c-9.87,22.86 -20.16,45.65 -28.77,68.97 -4.51,12.23 -8.88,23.09 -13.47,35.4 -4.37,11.75 -9.23,24.09 -13.38,36.68l-24.44 73.3c-7.98,25.15 -14.44,49.73 -22.02,75.72 -23.24,79.66 -36.88,160.35 -50.83,242.38 -4.82,28.33 -7.23,56.8 -11.08,86.66 -2.77,21.49 -6.26,55.97 -6.78,77.85 -0.14,5.93 -1.1,5.94 -1.24,11.86 -0.77,31.42 -3.62,60.97 -3.55,94.2 0.02,9.36 -1.22,14.55 -1.23,22.6 -0.06,40.4 2.57,80.89 2.4,120.46l2.48 46.39c4.79,59.9 10.02,119.93 19.36,176.13 4.58,27.6 8.73,55.88 14.25,83.49 26.51,132.46 61.29,254.35 110.2,379.69 9.27,23.74 19.48,46.24 28.79,68.95 29.73,72.53 83.97,174.67 124.35,241.57l97.51 148.03c36.94,52.37 77.53,101.69 118.84,150.53 2.43,2.86 2.6,3.67 5.42,6.5l11.27 12.57c2.61,3.09 2.94,4.09 6,7.1l23.25 25.62c2.25,2.23 3.78,3.64 5.99,5.93l41.69 44.13c13.92,13.92 27.4,29.56 42.79,41.84l31.7 30.28c4.66,4.72 8.42,7.13 13.11,11.92 2.78,2.83 10.67,9.89 13.41,11.38z"/>
       <g>
        <path class="fil3" d="M1434.52 4288.4c-0.59,-8.66 8.77,-47.09 11.1,-57.93l34.73 -169.37c12.11,-63.47 29.55,-167.51 45.35,-226.22 10.11,-1.92 13.89,-3.46 19.65,-10.14 4.64,-5.4 8.17,-11.57 15.51,-14.33 3.69,6.34 17.39,65.07 20.5,77.31 33.37,131.37 68.38,254 99.63,387.88 6.2,26.57 11.54,53.56 17.65,79.98 5.71,24.62 15.37,55.9 15.37,81.81 -2.56,13.37 -7.3,33.4 -4.22,44.16 4.55,15.92 6.8,5.59 13.25,36.81 5.7,27.58 12.18,55.94 17.69,83.62 10.28,51.67 10.85,66.24 41.99,108.19 18.54,24.95 18.76,44.58 25.14,76.17 9.54,47.18 21.57,75.44 33.33,118.04l18.06 57.04c2.16,7.35 3.62,13.03 5.97,20.24 4.27,13.08 7.57,25.95 11.34,38.72l10.87 40.39 -666.3 0c1.8,-7.72 4.77,-15.73 7.01,-22.78l22.06 -70.92c5.31,-15.96 9.05,-30.53 14.27,-46.51 12.75,-39.04 24.02,-79.41 36.68,-117.09l22.03 -70.94c3.89,-11.86 3.24,-8.8 13.77,-17.22 4.83,-3.87 10.02,-11.88 12.19,-18.81 2.7,-8.63 3.78,-25.47 11.02,-49.77 2.44,-8.19 5.28,-16.26 7.33,-23.66 13.21,-47.84 23.7,-69.68 30.27,-124.69 5.51,-46.11 16.65,-112.66 25.91,-158.84 0.49,-2.44 8.99,-48.26 10.83,-51.15zm630.53 -1135.49c-2.17,22.67 2.44,63.43 4.79,86.46 8.2,80.54 23.58,170.12 23.84,249.24 0.48,144.36 -48.35,519.12 -68.93,658.07 -15.54,104.97 -35.48,210.91 -48.49,315.14 -10.95,-1.56 -11.61,-15.79 -12.68,-26.81 -1.48,-15.36 0.93,-20.01 -11.26,-26.69 -10.4,-5.7 -7.98,-7.55 -10.84,-27.4 -32.92,-228.68 -72.54,-454.28 -108.85,-682.53 -6.93,-43.6 -13.35,-87.73 -19.62,-131.52 -3.13,-21.91 -7.1,-44.45 -8.8,-66.29 -1.13,-14.56 -1.45,-59.08 -5.88,-68.99 -12.65,9.9 -27.95,29.86 -40.89,41.42l-140.15 145.92c-6.56,6.79 -13.55,13.53 -19.98,20.53l-39.62 41.44c-3.68,3.77 -6.02,6.83 -9.83,10.44 -17.82,16.9 -42.02,44.53 -59.58,61.99l-50.44 52.07c-6.54,7.21 -13.62,13.21 -20.12,20.38 -6.66,7.34 -12.62,13.98 -19.44,21.11l-40.8 41.43c-6.83,7.23 -12.64,13.82 -19.42,21.13l-100.4 103.42c-11.39,11.23 -73.44,78.5 -79.67,82.5l-5.61 13.39c-42.94,109.4 -97.51,297.35 -112.59,405.91 -3.04,21.89 -7.4,45.58 -10.22,67.26 -4.73,36.53 8.78,51.39 27.47,67.27 12.18,10.36 46.29,32.03 43.33,52.29 -0.85,5.84 -2.15,11.09 -3.01,16.17 -7.31,42.88 -14.81,108.7 -19.12,153.71 -4.76,49.77 -14.08,117.75 -26.34,166.76 -1.3,5.2 -2.45,9.77 -3.81,15.26 -0.91,3.64 -3,12.54 -4.53,15.74 -32.47,0 -58.53,0.53 -90.58,-1.2 -27.86,-1.5 -63.68,-1.18 -91.78,-1.19 -105.29,0 -162.47,34.56 -252.19,72.02l-155.1 71.37c-2.3,1.62 -1.71,0.39 -2.73,3.22l3204.87 0 -1326.22 -2333.87 -215.18 222.47c-6.5,6.84 -45.68,48.85 -49.59,50.97z"/>
        <path class="fil4" d="M3795.45 4239.52c6.88,-52.63 16.67,-106.77 25.93,-159.15 8.65,-48.96 17.57,-88.74 26.75,-135.28 1.65,-8.39 0.04,-14.51 6.38,-17.92l68.81 217 54.63 171.8c6.51,19.4 11.87,38.11 18.49,57.8 12.94,38.45 23.87,76.48 36.66,114.72l110.55 345.97c20.81,57.55 44.7,108.84 64.69,162.96 3.21,8.67 7,18.65 10.55,27.59 2.03,5.11 9.14,23.86 9.54,28.61 -6.03,0 -9.15,-1.26 -16.68,-1.21 -6.36,0.03 -12.72,0.02 -19.09,0.02 -13.76,0 -23.06,-1.19 -36.95,-1.19 -6.37,0 -12.75,0.05 -19.11,0.04 -7.53,-0.01 -9.9,-1.3 -17.81,-1.26 -11.48,0.05 -26.82,1.17 -37.66,-0.47 -11.62,-1.76 -25.25,-0.72 -37.49,-0.67 -7.9,0.03 -10.27,-1.25 -17.81,-1.26l-75.15 -1.13c-8.02,0.05 -10.82,-1.17 -17.81,-1.26 -26.3,-0.32 -49.08,-1.27 -75.15,-1.14l-92.97 -2.39c-7.88,0.03 -11.72,-0.87 -17.87,-1.2 -12.18,-0.66 -26.12,0.94 -38.09,-0.05l-73.95 -2.32 70.62 -288.15c6.88,-32.32 14.6,-65.77 21.25,-99.13 20.75,-104.04 38.03,-201.35 53.18,-306.79 2.55,-17.76 4.92,-34.09 7.86,-51.73l7.7 -52.8zm-318.8 184.75c-1.8,16.03 -4.29,30.5 -6.52,46.28l-4.84 34.49c-0.65,4.79 -0.75,6.12 -4.49,8.62 -2.83,-12.17 -5.75,-24.69 -8.23,-37.06l-8.8 -38.03c-5.12,-28.28 -12.56,-57.65 -18.64,-85.88l-56.88 -260.21c-50.77,-238.32 -104.99,-477.79 -156.44,-716.09 -2.31,-10.75 -3.98,-10.79 0.06,-21.11 4.85,-12.41 9.18,-26.11 13.34,-39.07 8.8,-27.41 15.9,-54.64 22.71,-83.34 9.64,-40.61 29.33,-136.95 35.07,-177.1l67.92 26.6c54.7,20.37 125.65,42.26 183.19,55.21 7.44,1.67 33.57,6.46 38.52,8.93l-3.64 92.97c-0.72,31.54 -1.37,62.6 -2.38,94.16 -1.96,61.55 -6.37,119 -15.37,178.77 -8.38,55.64 -18.33,111.33 -25.84,167.17 -3.97,29.45 -14.71,105.62 -5.02,133.25 5.07,14.46 13.73,19.53 20.73,28.57l-17.82 143.87c-11.12,98.19 -19.01,196.29 -29.46,294.77 -2.59,24.37 -12.88,128.13 -17.18,144.21zm36.3 -1853.48c0.01,29.67 1.79,131.14 -0.59,156.19l-22.15 237.57 -214.22 -45.54c-2.99,-21.83 -8.95,-46.12 -12.96,-68.13 -4.19,-23.04 -8.33,-45.56 -12.38,-68.66l-23.48 -137.38 -897.51 233.64 0.16 1 1326.22 2333.87 1384.09 -2.38c-4.62,-0.38 -15.93,-5.65 -20.94,-7.66 -7.42,-2.97 -13.16,-5.27 -20.6,-8.02l-41.91 -16.49c-27.62,-10.98 -54.59,-21.92 -82.92,-32.7l-123.96 -48.87c-14.46,-5.5 -27.2,-11.46 -41.77,-16.63 -14.38,-5.11 -27.25,-11.11 -41.11,-16.1 -7.08,-2.56 -13.3,-5.28 -20.47,-8.15 -9.16,-3.67 -11.59,-5.32 -23.38,-6.41 -37.48,-3.46 -75.02,1.31 -112.16,1.31 -12.78,0 -47.06,0.72 -52.63,-4.58 -11.2,-10.67 -14.12,-83.17 -14.12,-101.51 0,-49.62 3.09,-117.28 -15.44,-158.58 -17.47,-38.92 -29.92,-21.42 -33.99,-37.53l-115.05 -448.73c-3.96,-14.96 -7.63,-31.37 -12.07,-46.34l-17.5 -68.31c-2.06,-8.26 -5.01,-15.41 -5.01,-24.8 25.45,-5.92 96.02,-42.29 104.48,-70.82 2.18,-7.32 0.44,-8.49 -2.14,-14.82l-55.68 -139.8c-7.62,-19.06 -14.5,-36.99 -22.3,-56.37 -16.27,-40.38 -22.08,-42.28 -6.47,-53.12 9.8,-6.8 12.65,-9.79 16.85,-22.48 4.09,-12.33 4.6,-18.69 4.6,-35.39 -3.14,-6.96 -1.3,-46.54 -39.62,-49.34 2.15,-19.48 17.45,-57.52 24.27,-76.24 6.9,-18.94 9.08,-24.66 -8.8,-32.02 -11.01,-4.53 -29.94,-6.35 -38.13,-10.71 -3.24,-23.15 -3.72,-51.32 -5.86,-75.23 -6.58,-73.44 -15.41,-146.79 -20.61,-220.71 -7.08,-100.5 -12.07,-202.58 -16.63,-303.85 -4.66,-103.51 -10.53,-205.59 -12.59,-309.88 -1,-50.34 -3.05,-103.35 -8.62,-152.16 -3.38,-29.64 -14.83,-106.48 -36.5,-124.96l-608.39 157.83z"/>
        <path class="fil5" d="M2511.73 1015.27l-182.07 1863.2 897.51 -233.64c0.05,-11.05 -61.36,-391.25 -64.57,-409.87 -1.92,-11.17 -3.84,-22.45 -5.78,-33.55 -2.99,-17.09 -4.34,-15.63 -0.35,-32.72 15.02,-64.29 -10.4,-144.76 -22.05,-207.16 -15.56,-83.33 -33.66,-182.45 -53.17,-263.95 -10,-41.78 -19.58,-88.25 -41.88,-116.6 -20.16,-25.64 -57.55,-46.38 -102.08,-55.19 -53.13,-10.5 -93.57,-3.09 -146.32,-0.79 -27.93,1.22 -49.43,3.35 -60.43,-17.8 -8.97,-17.24 -12.22,-49.74 -0.64,-65.42 16.37,-22.18 15.86,-16.14 31.01,-47.61 41.72,-86.68 62.12,-234.74 -5.09,-315.13 -21.77,-26.04 -67.18,-47.78 -101.69,-56.8 -45.16,-11.81 -95.36,-16.55 -142.39,-6.98z"/>
        <path class="fil6" d="M1162.76 4080.75c-1.05,4.94 -3.5,9.03 -4.77,14.61 6.22,-4 68.27,-71.27 79.67,-82.5l100.4 -103.42c6.78,-7.31 12.59,-13.89 19.42,-21.13l40.8 -41.43c6.82,-7.13 12.78,-13.77 19.44,-21.11 6.51,-7.17 13.58,-13.17 20.12,-20.38l50.44 -52.07c17.56,-17.46 41.76,-45.09 59.58,-61.99 3.81,-3.61 6.15,-6.67 9.83,-10.44l39.62 -41.44c6.43,-7 13.42,-13.74 19.98,-20.53l140.15 -145.92c12.94,-11.57 28.24,-31.52 40.89,-41.42 -1.44,-21.35 -13.87,-42.45 -28.9,-51.38 -5.77,-3.43 -6.17,-1.89 -7.06,-9.66 -15.22,-133.75 -27.43,-250.22 -37.71,-386.72 -6.1,-80.95 -10.11,-162.73 -16.06,-243.76 -3.18,-43.33 -10.11,-136.56 13.33,-175.08 8.07,-13.26 29.18,-27.54 33.15,-32.5 -5.62,-4.53 -16.16,-10 -22.67,-14.02 -97.07,-59.86 -198.46,-119.85 -296.54,-179.02 -7.85,-4.74 -14.97,-8.92 -23.16,-13.83 -5.69,-3.41 -17.5,-9.81 -21.69,-13.38 -10.63,3.05 -15.76,4.82 -28.47,6.65 -47.4,6.83 -3.55,19.08 -69.26,34.43 -45.91,10.73 -67.65,16.83 -89.61,47.42 -18.1,25.2 -29.89,65.85 -36,102.2 -6.42,38.19 -6.89,58.81 -8.08,95.75 -0.69,21.51 2.92,19.81 3.61,29.33 -10.23,8.26 -25.78,8.82 -26.06,27.39 -0.13,8.52 3.29,13.77 2.88,23.88 -1.05,25.32 -8.08,75.29 -2.94,98.37 1.92,8.62 6.57,10.82 10.97,15.27 6.3,6.37 4.27,11.46 1.97,20.2 -3.46,13.16 -2.23,60.49 -2.48,75.94 -4.03,255.51 13.63,537.76 40.63,793.39 6.53,61.79 2.93,120.45 32.89,175.78 25.95,47.94 17,62.58 -9.99,114.9 -6.02,11.66 -11.17,23.11 -17.46,35.07 -7.52,14.27 -28.49,69.65 -30.86,72.56z"/>
        <path class="fil7" d="M1391.01 2312.24c4.19,3.57 16,9.97 21.69,13.38 8.19,4.91 15.31,9.09 23.16,13.83 98.08,59.17 199.47,119.16 296.54,179.02 6.51,4.02 17.04,9.49 22.67,14.02 4.1,-1.36 13.04,-7.87 17.83,-10.65 6.13,-3.55 13.4,-6.96 21.17,-8.6 23.57,-5.03 9.41,12.38 43.09,14.12 33.74,1.75 79.06,-9.7 110.41,-4.29l-20.54 113.06 402.64 242.34 182.07 -1863.2c-89.31,25.68 -137.75,112.87 -142.38,201.75 -2.73,52.53 2.04,106.42 19.92,151.11 8.03,20.08 20.08,41.14 31.61,54.22 26.31,29.87 39.47,33.56 45.73,39.96 -0.13,8.61 -4.58,27.89 -6.49,38.74 -2.47,14.04 -7.52,40.22 -13.94,52.78 -3.08,6.04 -4.79,7.79 -12.8,8.74 -13.68,1.61 -30.18,-0.34 -44.13,-0.69 -26,-0.64 -50.59,8.23 -72.06,16.69 -28.68,11.31 -36.43,15.88 -52.26,35.95 -27.9,35.4 -83.63,2.35 -117.72,59.93 -46.84,79.12 -107.11,363.43 -140.06,478.53 -2.74,9.57 -9.84,25.66 -6.3,35.03 4.67,12.36 15.76,14.43 14.63,30.02 -1.35,18.67 -13.28,51.92 -19.18,69.52 -5.85,17.47 -17.95,51.23 -18.28,69.92 -17.71,-1.36 -29.65,-6.9 -45.95,-10.06 -39.34,-7.63 -118.24,-7.85 -159.03,-8.71 -27.82,-0.58 -125.54,-5.26 -148.77,-19.66 -22.27,-13.8 -27.11,-1.95 -48.75,-7.23 -6.47,-9.08 -18.75,-46.23 -21.11,-59.79 -5.13,-29.58 8.55,-40.81 17.6,-62.15 15.75,-37.14 27.12,-82.97 38.58,-123.54 5.4,-19.12 13.23,-45.82 15.59,-65.33 3.56,-29.33 -14.27,-40.66 -28.4,-52.37 -27.94,-23.15 -62.91,-43.83 -106.13,-55.97 -48.37,-13.58 -92.31,-5.09 -135.4,12.31 -21.05,8.49 -40.18,15.58 -45.43,35.56 -5.53,21.03 -6.7,52.89 -4.43,75.17 2.76,27.16 11.47,31.52 14.96,66.38 1.61,16.05 13.84,46.13 19.8,61.22 13.07,33.12 27.26,85.89 70.84,90.08 -4.03,16.09 -4.79,26.82 -6.68,43.5 -2.73,24 -4.21,24.44 -14.33,35.39z"/>
        <path class="fil2" d="M1755.07 2532.48c-3.97,4.96 -25.09,19.24 -33.15,32.5 -23.44,38.52 -16.51,131.75 -13.33,175.08 5.95,81.04 9.96,162.82 16.06,243.76 10.28,136.5 22.49,252.97 37.71,386.72 0.89,7.77 1.29,6.23 7.06,9.66 15.03,8.93 27.46,30.03 28.9,51.38 4.43,9.9 4.75,54.43 5.88,68.99 1.7,21.84 5.66,44.39 8.8,66.29 6.27,43.79 12.68,87.92 19.62,131.52 36.32,228.25 75.93,453.85 108.85,682.53 2.86,19.85 0.44,21.7 10.84,27.4 12.2,6.68 9.78,11.33 11.26,26.69 1.06,11.02 1.73,25.25 12.68,26.81 13.01,-104.23 32.95,-210.17 48.49,-315.14 20.58,-138.95 69.41,-513.71 68.93,-658.07 -0.26,-79.12 -15.63,-168.7 -23.84,-249.24 -2.35,-23.03 -6.95,-63.79 -4.79,-86.46 -2.2,-26.27 1.57,-53.3 1.71,-79.24 -18.39,-4.24 -40.01,-17.68 -53.43,-26.77 -11.9,-8.05 -32.69,-26.17 -41.84,-36.84 -54.61,-63.65 -85.99,-150.65 -69.2,-239.76 8.26,-43.81 18.04,-90.16 24.74,-134.17l20.54 -113.06c-31.35,-5.41 -76.67,6.04 -110.41,4.29 -33.68,-1.74 -19.52,-19.15 -43.09,-14.12 -7.77,1.65 -15.04,5.05 -21.17,8.6 -4.79,2.77 -13.73,9.28 -17.83,10.65z"/>
        <path class="fil2" d="M3443.78 4438.58c2.95,-1.21 4.75,-1.62 7.92,-3.16 3.27,-1.6 5.09,-2.61 8.08,-3.82 5.63,-2.28 11.44,-6.21 16.87,-7.32 4.3,-16.09 14.6,-119.85 17.18,-144.21 10.45,-98.48 18.34,-196.59 29.46,-294.77l17.82 -143.87c-7,-9.04 -15.66,-14.11 -20.73,-28.57 -9.7,-27.63 1.05,-103.79 5.02,-133.25 7.51,-55.84 17.47,-111.54 25.84,-167.17 8.99,-59.77 13.41,-117.22 15.37,-178.77 1.01,-31.56 1.65,-62.63 2.38,-94.16l3.64 -92.97c-4.95,-2.47 -31.07,-7.25 -38.52,-8.93 -57.54,-12.95 -128.49,-34.83 -183.19,-55.21l-67.92 -26.6c-5.74,40.16 -25.42,136.49 -35.07,177.1 -6.81,28.7 -13.91,55.93 -22.71,83.34 -4.16,12.96 -8.5,26.66 -13.34,39.07 -4.04,10.32 -2.37,10.36 -0.06,21.11 51.45,238.29 105.66,477.77 156.44,716.09l56.88 260.21c6.08,28.23 13.52,57.6 18.64,85.88z"/>
        <path class="fil5" d="M3512.96 2570.79l608.39 -157.83c-24.16,-30.07 -70.26,-37.4 -117.59,-46.64 -65.64,-12.82 -53.6,-15.78 -79.29,-43.39 -11.17,-12 -11.32,-7.57 -26.81,-13.59 0,-34.69 -9.1,-66.43 4.99,-97.65 11.59,-25.69 31.9,-38.12 37.2,-71.22 2.61,-16.3 1.46,-32.66 7.92,-46.99 13.32,-29.54 66.03,-83.65 13.1,-101.37 -16.95,-5.68 -26.87,-4.91 -39.49,-15.33 -5.08,-4.2 -8.85,-8.33 -15.16,-12.28 -54.28,-33.98 -136.66,-29.35 -185.48,10.46 -27.54,22.46 -5.62,19.43 -56.36,50.89 -12.18,7.56 -20.22,14.24 -19.87,34.82 1.21,70.48 98.24,177.56 81.28,237.59 -2.31,8.19 -5.89,12.19 -10.64,16.74l-13.06 13.15c-5.44,6.13 -1.05,12.91 -10.67,16.75 -16.37,6.52 -47.98,2.11 -71.95,9.08 -28.01,8.15 -52.26,22.77 -68.79,38.52 -35.83,34.15 -36.28,128.82 -37.73,178.29z"/>
        <path class="fil8" d="M2065.05 3152.9c3.91,-2.12 43.09,-44.13 49.59,-50.97l215.18 -222.47 -0.16 -1 -402.64 -242.34c-6.69,44.01 -16.48,90.36 -24.74,134.17 -16.79,89.11 14.59,176.12 69.2,239.76 9.15,10.67 29.95,28.78 41.84,36.84 13.42,9.08 35.04,22.53 53.43,26.77 -0.15,25.94 -3.91,52.97 -1.71,79.24z"/>
        <path class="fil2" d="M1434.52 4288.4c4.33,1.15 12.45,7.09 16.63,9.59 5.31,3.18 10.37,6.67 16.05,10.17 11.58,7.13 21.91,13.05 33.54,20.09 23.89,14.46 45.8,25.56 68.52,38.76 2.86,1.67 5.41,2.74 8.71,4.41 18.98,9.62 42.86,23.36 61.96,32.21l36.54 17.09c7.47,3.32 31.37,15.5 37.55,16.67 0,-25.91 -9.67,-57.19 -15.37,-81.81 -6.11,-26.42 -11.45,-53.4 -17.65,-79.98 -31.26,-133.88 -66.27,-256.51 -99.63,-387.88 -3.11,-12.24 -16.81,-70.98 -20.5,-77.31 -7.34,2.76 -10.87,8.93 -15.51,14.33 -5.76,6.67 -9.54,8.22 -19.65,10.14 -15.8,58.71 -33.24,162.75 -45.35,226.22l-34.73 169.37c-2.33,10.85 -11.69,49.27 -11.1,57.93z"/>
        <path class="fil2" d="M3795.45 4239.52c4.17,-1 29.04,-19.45 32.83,-22.3 11.01,-8.29 21.15,-15.58 32.17,-23.85 10.99,-8.25 20.8,-16.25 31.68,-24.35l31.2 -24.87 -68.81 -217c-6.34,3.41 -4.73,9.53 -6.38,17.92 -9.17,46.54 -18.1,86.32 -26.75,135.28 -9.26,52.39 -19.05,106.52 -25.93,159.15z"/>
       </g>
      </g>
     </g>
    </g>
    <path class="fil0" d="M2613.74 33.83c1405.81,0 2545.45,1139.64 2545.45,2545.45 0,1405.81 -1139.64,2545.45 -2545.45,2545.45 -1405.81,0 -2545.45,-1139.64 -2545.45,-2545.45 0,-1405.81 1139.64,-2545.45 2545.45,-2545.45z"/>
    <path class="fil1" d="M9081.02 3418.73c69.3,0 127.6,9.78 187,26.98 122.4,35.46 229.94,107.84 265.77,233.51 32.02,112.32 0.97,226.51 -59.12,306.73 -41.97,56.02 -108.95,108.01 -186.81,108.01 -41.41,0 -59.34,-5.71 -88,-42.76 -59.05,-76.36 -86.69,-241.23 -100.53,-336.93l-15.93 -148.13c-0.42,-13.93 -1.62,-36.82 -3.74,-50.93l-3.46 -51.23c0.02,-30.03 -6.92,-45.25 4.84,-45.25zm-9.52 -116.5c0,-25.35 0.02,-50.72 0,-76.08 -0.01,-27.03 2.38,-45.84 2.38,-73.69 0,-50.69 -0.53,-102.61 4.41,-147.75 1.27,-11.62 1.7,-25.77 2.53,-35.52 5.89,-69.94 19,-155.05 52.57,-213.7 35.84,-62.63 117.4,-46.67 162.09,-19.57 25.64,15.55 22.16,13.8 44.36,31.73 45.48,36.72 97.8,124.81 97.8,206.5 0,65.23 -4.53,103.14 -39.94,159.76 -92.58,147.98 -313.71,162.34 -326.2,168.33zm-1214.91 -651.43c19.81,8.68 90.69,29.66 110.8,34.22 21.72,4.92 101.43,20.45 124.58,20.45 10.69,45.9 48.99,53.29 75.31,67.34 13.62,7.26 15.1,10.77 26.33,21.36 81.64,77.06 39.83,283.08 21.4,369.57 -36.23,170.01 -86.17,302.47 -139.38,462.15l-14.57 40.11c-1.75,-21.17 -45.94,-130.89 -57.36,-158.99 -23.06,-56.72 -65.89,-135.59 -87.99,-190.17l-90.91 -218.16c-41.49,-123.91 -34.92,-233.36 17.47,-352.84 14.96,-34.11 30.4,-59.07 14.33,-95.02zm-751.29 128.38c-11.08,-7.42 -23.47,-22.84 -36.02,-32.94 -19.57,-15.76 -18.59,-16.78 -42.44,-33.35 -25,-17.37 -43.71,-29.34 -71.38,-43.03l-11.84 -7.19c25.56,-5.96 54.67,-19.28 78.14,-28.86 59.45,-24.28 120.6,-62.14 171.5,-101.91 10.22,-7.98 19.76,-15.71 30.21,-24.47 10.38,-8.71 15.83,-16.08 27.21,-25.1l39.06 -41.77c40.37,-52.19 67.99,-82.92 100.09,-147.16 5.11,-10.23 12.05,-29.24 19.78,-34.9 6.28,26.94 85.31,134.5 109.94,161.1l51.38 53.22c22.78,18.17 37.34,33.89 69.97,58.41l101.55 67.25 -561.09 0c-40.34,0 -73.63,-3.47 -95.5,16.25 -38.24,34.48 -9.99,89.74 3.46,123.34 4.78,11.94 13.35,29.91 15.97,41.11zm-1421.77 -962.9c0,55.18 5.33,105.35 12.27,154.18 6.67,46.95 19.25,91.6 31.54,134.89 12.47,43.93 29.04,81.17 45.86,120.56 22.07,51.67 59.21,110.63 95.23,154.41 12.42,15.07 24,31.46 37.97,45.24 19.72,19.44 26.67,29.56 51.14,51.1l22.17 20.62c51.7,40.39 127.36,97.9 190.21,123.62 10.8,4.42 18.77,10.75 29.54,13.25l0 4.76c-19.64,1.64 -40.26,14.05 -57.41,21.06 -54.26,22.2 -105.47,52.89 -152.15,87.96 -15.43,11.6 -29.24,21.79 -44.14,34.34l-41.71 39.12c-40.34,40.35 -75.32,85.91 -105.39,134.74 -110.83,180.03 -141.65,421.29 -95.1,632.79 12.01,54.59 27.37,109.43 49.74,159.48l34.08 70.53c11.7,23.66 25.52,43.44 39.77,64.85 20.44,30.71 43.58,61.22 69.78,87.14 9.41,9.3 14.71,18.79 25.36,26.94 11.64,8.91 16.66,16.29 26.95,25.35 5.75,5.06 8.32,6.24 14.25,11.9 51.07,48.68 147.52,100.84 211.53,128.45 188.62,81.41 453.16,83.07 653.13,26.52 61.73,-17.46 117.53,-43.57 173.35,-73.91 26.35,-14.32 49.84,-31.71 73.9,-49.73 22.27,-16.68 56.92,-45.76 75.65,-67.01l19.01 -21.4c43.06,-48.71 76.55,-104.84 105.65,-163.01 11.97,-23.93 43.55,-99.61 43.55,-127.62 0,-34.9 -32.84,-64.18 -73.69,-64.18 -29.82,0 -41.67,28.85 -50.94,51.3 -27.68,67.08 -84.72,129.63 -142.65,171.18 -87.64,62.85 -197.58,105.61 -310.45,105.61 -71.21,0 -128.27,-4.49 -192.87,-23.49 -23.42,-6.89 -42.81,-13.23 -63.91,-21.68 -68.23,-27.34 -134.09,-66.26 -186.04,-118.28 -56.28,-56.38 -90.5,-101.17 -130.93,-173.4l-27.46 -58.13c-47.84,-117.93 -69.25,-231.35 -69.25,-377.71 0,-119.32 22.93,-226.86 79.8,-321.99 45.82,-76.66 134.06,-146.39 255.43,-146.39 83.86,0 142.31,20.88 194.25,81.54 41.95,48.99 64.78,114.98 84.78,176.73 18.88,58.28 28.67,123.08 56.29,169.58 37.75,63.56 126.68,95.21 199.61,95.21 65.59,0 132.88,-24.24 176.54,-68.34 23.84,-24.07 34.89,-40.8 50.95,-72.7 14.63,-29.11 19.77,-60.92 19.77,-103.85 0.34,0.47 0.76,0.69 0.88,1.5 0.12,0.81 0.71,1.18 0.87,1.5 0.09,0.16 2.32,4.69 2.35,4.78 2.11,4.71 2.08,5.18 4.07,10.21l24.11 59.11c10.76,26.91 21.23,52.44 31.6,77.75 21.53,52.53 39.68,103.89 62.93,155.79 11.73,26.14 19.95,51.57 31.68,77.7 27.33,60.96 54.52,131.87 79.27,194.14l174.9 426.62c12.87,32.37 71.87,179.72 81.36,192.05 6.96,9.04 25.04,16.13 40.94,16.13l361.38 0c57.96,0 59.59,-96.65 54.03,-137.25 -2.08,-15.1 -0.11,-35.78 -2.38,-52.31 -8.99,-65.29 66.91,-262.7 92.48,-334.39 65.67,-184.09 162.37,-388.4 250.56,-557.79l115.64 -210.08c3.75,-6.87 5.64,-10.05 9.57,-16.58 4.14,-6.89 8.24,-10.63 10.27,-18.27 12.01,8.8 40.11,91.29 44.18,105.62 11.39,40.13 22.41,79.38 29.54,122.61 36.92,223.64 30.45,490.98 -28.53,703.77 -12.25,44.2 -26.59,83.96 -46.77,124.42 -9.46,18.97 -19.54,37.05 -32.01,53.57 -31.88,42.2 -63.88,81.18 -63.88,140.59 0,40.62 30.89,76.08 71.33,76.08l803.6 0c61.24,0 114.63,-10.02 170.99,-21.6 18.2,-3.72 33.97,-9.54 52.01,-14.55 14.67,-4.07 31.37,-11.46 47.15,-17.04 45.03,-15.92 89.73,-39.42 128.83,-66.14 76.69,-52.39 145.44,-122.63 178.41,-211.49 37.19,-100.19 22.52,-190.55 -31.55,-279.22 -5.97,-9.77 -16.01,-23.01 -23.41,-31.28 -44.97,-50.22 -95.91,-93.02 -156.27,-124.27 -63.65,-32.96 -130.19,-60.15 -200.24,-77.94l-44.67 -12.38c15.49,-3.61 36.54,-11.42 51.62,-17.33 49.98,-19.63 100.06,-40.62 143.84,-70.12 88.92,-59.93 155.61,-146.67 163.51,-259.88 0.58,-8.28 -1.73,-22.11 -2.51,-32.9 -0.66,-9.29 -3.15,-20.82 -5.5,-30.16 -18.81,-74.47 -44.97,-104.99 -90.14,-159.51 -15.69,-18.94 -64.93,-54.76 -87.26,-69.29 -0.42,-0.28 -1.01,-0.66 -1.42,-0.94l-2.86 -1.97c-31.41,-22.16 -67.87,-36.64 -102.64,-52.19 -4.68,-2.08 -5.86,-2.99 -11.66,-4.92 -2.36,-0.79 -4.58,-1.26 -7.07,-2.16 -49.31,-17.52 -92.56,-30.74 -148.78,-39.4 -44.61,-6.89 -83.6,-8.14 -134.51,-8.14 -189.4,0 -378.83,0 -568.23,0l34.06 -20.63c12.31,-7.32 22.78,-14.7 34.44,-22.6 46.34,-31.43 78.44,-64.89 118.75,-104.74 6.45,-6.39 7.56,-8.73 13.16,-15.36 5.28,-6.22 8.01,-8.66 13.25,-15.28 59.72,-75.49 107.24,-162.45 137.93,-254.36 8.46,-25.37 19.3,-59.82 19.3,-94.83 0,-51.07 -11.14,-105.93 -29.31,-139.5 -29.54,-54.59 -81.4,-92.22 -137.15,-117.24 -64.88,-29.12 -133.71,-40.18 -207.46,-49.31 -26.11,-3.23 -52.37,-4.02 -76.09,-7.12l-158.46 -12.73c-24.44,-1.89 -52.56,-5.89 -76.4,-9.2 -183.36,-25.4 -170.27,-62.3 -212.15,-85.04 -54.05,-29.33 -106.82,17.86 -132.59,60.98 -43.66,73.07 -59.64,179.25 -5.99,253.54 20.54,28.45 48.1,50.45 80.59,66.8 66.78,33.63 139.63,33.14 215.45,38.95 8.33,0.64 24.74,1.79 34.8,3.23 21.74,3.12 43.39,4.29 64.98,6.35 62.34,5.98 132.44,16.88 189.94,31.17 58.91,14.64 174.03,52.39 174.03,120.77 0,53.08 -44.35,96.79 -81.83,125.03 -54.97,41.43 -125.12,62.69 -192.26,74.01 -134.8,22.73 -274.03,6.99 -393.22,-57.17 -29.19,-15.71 -56.38,-35.04 -81.61,-53.91 -13.15,-9.84 -23.45,-19.56 -36.68,-29.89 -42.87,-33.49 -96.86,-97.85 -126.41,-142.24 -9.41,-14.13 -17.73,-25.62 -26.37,-40.21 -25.36,-42.81 -48.92,-87.51 -67.65,-134.44 -71.45,-178.91 -104.07,-399.1 -55.78,-591.4 19.76,-78.69 53.43,-156.87 109.01,-211.95 58.32,-57.79 124.5,-100.45 220.52,-100.45 56.77,0 105.03,1.58 152.07,28.63 115.76,66.58 161.16,238.8 191.24,360.35 8.95,36.21 23.25,69.95 44.79,93.09 97.98,105.3 293.58,107.61 389.98,10.71 61.99,-62.3 80.21,-113.36 80.21,-205.1 0,-63.6 -20.32,-113.62 -51.34,-160.25 -27.84,-41.82 -63.65,-77.41 -102.87,-108.73 -40.21,-32.12 -86.61,-56.83 -132.65,-78.96 -90.78,-43.66 -241.44,-76.98 -345.47,-80.09 -25.43,-0.76 -44.52,-2.3 -69.03,-2.3 -20.93,0 -33.23,2.58 -52.29,2.4 -16.86,-0.16 -37.37,1.02 -53.7,3.34 -95.28,13.49 -190.27,27.93 -279.17,63.2 -66.58,26.4 -127.44,56.55 -186.89,96.04l-49.17 36.42c-32.07,23.68 -60.33,52.21 -87.93,80.88 -5.97,6.19 -7.01,9.37 -13,15.53 -9.96,10.23 -16.92,19.83 -26.03,31.02 -8.56,10.51 -17.05,22 -24.51,32.55 -67.81,95.91 -115.95,200.99 -135.84,320.64 -23.11,139.04 -25.74,264.22 1.7,403.12 14.45,73.11 21.22,37.65 -4.54,93.31 -18.96,40.99 -42.18,82.07 -73.54,114.29 -19.85,20.39 -15.1,18.13 -40.37,40.46 -10.76,9.5 -17.15,16.23 -29.3,25.39 -102.63,77.39 -224.46,124.96 -383.82,124.96 -88.29,0 -161.43,-17.7 -236.08,-46.84 -12.38,-4.83 -21.68,-8.72 -33.38,-14.18 -32.3,-15.1 -62.41,-31 -91.92,-50.73 -28.8,-19.24 -52.72,-41.88 -79.83,-62.82 -50.8,-39.23 -119.11,-142.43 -142.86,-189.99 -76.05,-152.35 -105.4,-282.95 -105.4,-472.33 0,-74.44 11.39,-162.68 30.01,-219.63 10.4,-31.8 19.99,-58.7 34.97,-88.67 13.51,-27.02 28.81,-54.89 48.61,-77.41 40.54,-46.09 86.02,-82.65 146.67,-102.96 62.86,-21.05 159.26,-22.24 219.36,1.91 127.15,51.12 173.74,217.21 210.36,350.75 3.99,14.54 8.7,34.11 13.44,48.37 5.36,16.17 11.73,28.93 19.44,42.38 39.49,68.85 132.46,104.68 223.4,104.68 69.71,0 135.67,-25.09 182.48,-71.91 60.94,-60.99 79.04,-112.63 79.04,-203.88 0,-70.37 -24.84,-129.56 -64.16,-180.71l-87.67 -88.27c-6.66,-5.32 -13.04,-10.19 -20.34,-15.33l-66.4 -40.59 -96.65 -43.62c-71.82,-28.49 -213.31,-58.53 -294.72,-59.53 -26.11,-0.32 -43.9,-2.29 -69.04,-2.29 -66.38,0 -142.01,8.55 -205.84,20.02 -148.59,26.7 -276.03,80.24 -398.06,167.78 -74.93,53.77 -142.35,129.15 -190.66,206.4 -55.95,89.48 -92.18,179.69 -113.06,283.98 -12.28,61.43 -19.62,136.32 -19.62,208.63z"/>
   </g>
  </g>
 </g>
</svg>
