<svg xmlns="http://www.w3.org/2000/svg" xmlns:xlink="http://www.w3.org/1999/xlink" width="940" zoomAndPan="magnify" viewBox="0 0 705 591.000005" height="788" preserveAspectRatio="xMidYMid meet" version="1.0"><defs><clipPath id="89f883137f"><path d="M 59.59375 459.480469 L 70.078125 459.480469 L 70.078125 469.960938 L 59.59375 469.960938 Z M 59.59375 459.480469 " clip-rule="nonzero"/></clipPath><clipPath id="e4d0e361c7"><path d="M 0.59375 48.667969 L 704.402344 48.667969 L 704.402344 541.335938 L 0.59375 541.335938 Z M 0.59375 48.667969 " clip-rule="nonzero"/></clipPath><clipPath id="8d3bcde522"><path d="M 229 242 L 476 242 L 476 419 L 229 419 Z M 229 242 " clip-rule="nonzero"/></clipPath><clipPath id="78a7a6a234"><path d="M 229.332031 295 C 229.332031 290.96875 229.53125 286.941406 229.925781 282.929688 C 230.320312 278.914062 230.914062 274.929688 231.699219 270.972656 C 232.488281 267.015625 233.464844 263.109375 234.636719 259.246094 C 235.808594 255.386719 237.164062 251.59375 238.707031 247.867188 C 240.253906 244.140625 241.976562 240.5 243.875 236.941406 C 245.777344 233.382812 247.851562 229.925781 250.089844 226.574219 C 252.332031 223.21875 254.730469 219.984375 257.289062 216.863281 C 259.851562 213.746094 262.554688 210.761719 265.40625 207.910156 C 268.261719 205.054688 271.246094 202.351562 274.363281 199.792969 C 277.480469 197.234375 280.71875 194.832031 284.074219 192.589844 C 287.425781 190.351562 290.882812 188.277344 294.441406 186.378906 C 297.996094 184.476562 301.640625 182.753906 305.367188 181.210938 C 309.09375 179.667969 312.886719 178.308594 316.746094 177.136719 C 320.605469 175.96875 324.515625 174.988281 328.472656 174.199219 C 332.425781 173.414062 336.414062 172.824219 340.425781 172.425781 C 344.441406 172.03125 348.464844 171.835938 352.5 171.835938 C 356.535156 171.835938 360.558594 172.03125 364.574219 172.425781 C 368.585938 172.824219 372.570312 173.414062 376.527344 174.199219 C 380.484375 174.988281 384.394531 175.96875 388.253906 177.136719 C 392.113281 178.308594 395.90625 179.667969 399.632812 181.210938 C 403.359375 182.753906 407.003906 184.476562 410.558594 186.378906 C 414.117188 188.277344 417.574219 190.351562 420.925781 192.589844 C 424.28125 194.832031 427.519531 197.234375 430.636719 199.792969 C 433.753906 202.351562 436.738281 205.054688 439.59375 207.910156 C 442.445312 210.761719 445.148438 213.746094 447.710938 216.863281 C 450.269531 219.984375 452.667969 223.21875 454.910156 226.574219 C 457.148438 229.925781 459.222656 233.382812 461.125 236.941406 C 463.023438 240.5 464.746094 244.140625 466.292969 247.867188 C 467.835938 251.59375 469.191406 255.386719 470.363281 259.246094 C 471.535156 263.109375 472.511719 267.015625 473.300781 270.972656 C 474.085938 274.929688 474.679688 278.914062 475.074219 282.929688 C 475.46875 286.941406 475.667969 290.96875 475.667969 295 C 475.667969 299.035156 475.46875 303.058594 475.074219 307.074219 C 474.679688 311.085938 474.085938 315.074219 473.300781 319.03125 C 472.511719 322.984375 471.535156 326.894531 470.363281 330.753906 C 469.191406 334.613281 467.835938 338.40625 466.292969 342.132812 C 464.746094 345.863281 463.023438 349.503906 461.125 353.0625 C 459.222656 356.617188 457.148438 360.074219 454.910156 363.429688 C 452.667969 366.78125 450.269531 370.019531 447.710938 373.136719 C 445.148438 376.253906 442.445312 379.242188 439.59375 382.09375 C 436.738281 384.945312 433.753906 387.652344 430.636719 390.210938 C 427.519531 392.769531 424.28125 395.167969 420.925781 397.410156 C 417.574219 399.652344 414.117188 401.722656 410.558594 403.625 C 407.003906 405.527344 403.359375 407.25 399.632812 408.792969 C 395.90625 410.335938 392.113281 411.691406 388.253906 412.863281 C 384.394531 414.035156 380.484375 415.015625 376.527344 415.800781 C 372.570312 416.585938 368.585938 417.179688 364.574219 417.574219 C 360.558594 417.96875 356.535156 418.167969 352.5 418.167969 C 348.464844 418.167969 344.441406 417.96875 340.425781 417.574219 C 336.414062 417.179688 332.429688 416.585938 328.472656 415.800781 C 324.515625 415.015625 320.605469 414.035156 316.746094 412.863281 C 312.886719 411.691406 309.09375 410.335938 305.367188 408.792969 C 301.640625 407.25 297.996094 405.527344 294.441406 403.625 C 290.882812 401.722656 287.425781 399.652344 284.074219 397.410156 C 280.71875 395.167969 277.480469 392.769531 274.363281 390.210938 C 271.246094 387.652344 268.261719 384.945312 265.40625 382.09375 C 262.554688 379.242188 259.851562 376.253906 257.289062 373.136719 C 254.730469 370.019531 252.332031 366.78125 250.089844 363.429688 C 247.847656 360.074219 245.777344 356.617188 243.875 353.0625 C 241.976562 349.503906 240.253906 345.863281 238.707031 342.132812 C 237.164062 338.40625 235.808594 334.613281 234.636719 330.753906 C 233.464844 326.894531 232.488281 322.984375 231.699219 319.03125 C 230.914062 315.074219 230.320312 311.085938 229.925781 307.074219 C 229.53125 303.058594 229.332031 299.035156 229.332031 295 Z M 229.332031 295 " clip-rule="nonzero"/></clipPath><clipPath id="0faeb37c3e"><path d="M 392 269 L 404 269 L 404 281 L 392 281 Z M 392 269 " clip-rule="nonzero"/></clipPath><clipPath id="3292623663"><path d="M 390.703125 278.363281 L 395.382812 267.609375 L 405.066406 271.816406 L 400.386719 282.570312 Z M 398.683594 273.246094 L 397.882812 275.089844 L 402.722656 277.195312 L 403.527344 275.351562 Z M 398.683594 273.246094 " clip-rule="nonzero"/></clipPath></defs><g clip-path="url(#89f883137f)"><path stroke-linecap="butt" transform="matrix(0.0154423, 0, 0, 0.0154948, 58.814233, 457.264348)" fill="none" stroke-linejoin="miter" d="M 281.176502 144.787806 L 288.765226 143.527306 L 287.500439 152.350805 L 295.089162 158.653305 L 297.618737 166.216304 L 292.559588 177.308702 L 291.294801 188.653201 L 296.35395 203.527099 L 307.484078 211.090098 L 322.408568 208.569098 L 341.12742 199.7456 L 362.375847 203.527099 L 360.099229 193.6952 L 372.494145 191.174201 L 376.288507 187.392701 L 391.212997 196.2162 L 401.331295 193.6952 L 414.990998 194.9557 L 425.109297 183.611202 L 426.374084 174.787703 L 440.033787 161.174304 L 451.163915 173.527203 L 452.428702 189.913701 L 460.017426 204.787599 L 468.870937 208.569098 L 461.282213 222.434597 L 448.63434 234.787495 L 443.828148 241.089994 L 445.092936 252.434493 L 452.428702 252.434493 L 457.487851 237.308495 L 473.677129 237.308495 L 492.395981 238.568995 L 492.395981 247.392494 L 488.854576 256.215993 L 480.001065 262.266392 L 492.395981 259.745392 L 498.719917 248.652993 L 512.37962 246.131994 L 542.481558 257.476492 L 550.070281 264.787391 L 558.670835 262.266392 L 563.729984 272.350391 L 563.729984 281.173889 L 567.524346 284.955389 L 581.184049 279.91339 L 596.361496 284.955389 L 616.345136 289.745288 L 638.85835 288.484789 L 664.912968 306.131786 L 677.560841 317.476285 L 693.750118 329.829183 L 714.998545 336.131683 L 725.116843 349.745081 L 728.658248 371.173578 L 723.852056 393.610476 L 706.145034 413.526373 L 695.014906 424.870872 L 680.090415 442.26577 L 668.70733 461.173267 L 656.312414 466.215267 L 648.723691 476.047165 L 649.988478 489.912664 L 649.988478 508.568061 L 646.194116 531.004959 L 640.123137 551.172956 L 630.004839 566.046854 L 631.269626 578.651853 L 617.609923 594.786251 L 607.491625 609.912249 L 607.491625 622.265147 L 592.567135 629.828146 L 588.772773 634.870146 L 588.772773 637.391145 L 576.1249 638.651645 L 558.670835 634.870146 L 550.070281 639.912145 L 541.21677 641.172645 L 533.628047 646.214644 L 530.086642 651.004544 L 519.968344 651.004544 L 501.249492 664.870042 L 491.131193 674.954041 L 481.265852 681.00444 L 477.471491 698.651438 L 480.001065 711.004336 L 476.206703 727.390834 L 463.811788 739.743733 L 454.958277 757.390731 L 438.768999 782.348627 L 425.109297 789.911627 L 414.990998 804.785525 L 408.667062 817.390523 L 402.596083 818.651023 L 400.066508 807.306524 L 407.402274 799.743525 L 395.007359 787.390627 L 375.02372 774.785628 L 372.494145 767.474729 L 364.905421 772.264629 L 352.510506 757.390731 L 342.392207 757.390731 L 346.186569 749.827731 L 364.905421 728.651334 L 386.153848 711.004336 L 397.536933 703.693437 L 400.066508 687.306939 L 395.007359 678.73554 L 386.153848 676.214541 L 391.212997 657.307043 L 386.153848 646.214644 L 373.758932 649.744044 L 367.434996 621.004647 L 353.775293 617.475248 L 332.526866 618.735748 L 333.791654 598.56775 L 327.467717 581.172852 L 337.586016 551.172956 L 332.526866 538.567958 L 322.408568 531.004959 L 322.408568 517.39156 L 291.294801 517.39156 L 286.235651 498.484063 L 290.030013 494.954663 L 287.500439 477.307665 C 287.500439 477.307665 275.105523 468.484166 272.575949 468.484166 C 270.046374 468.484166 247.53316 463.694267 247.53316 463.694267 L 232.60867 451.089268 C 232.60867 451.089268 225.019946 454.870768 219.960797 452.349768 C 214.901648 449.828769 201.241945 432.433871 201.241945 432.433871 L 201.241945 406.215474 L 177.463944 412.265873 L 166.333816 426.131372 L 154.95073 426.131372 L 143.820602 436.21537 L 123.836962 432.433871 L 117.513026 434.95487 L 109.924302 427.391871 L 111.18909 407.475974 L 101.323749 417.307873 L 83.869684 417.307873 L 81.340109 408.484374 L 67.427449 407.475974 L 71.221811 399.912975 L 51.238172 376.215578 L 55.032534 363.610579 L 67.427449 358.56858 L 64.897874 349.745081 L 67.427449 333.610683 L 100.058961 314.955285 L 114.983451 318.484685 L 128.643154 262.266392 L 123.836962 248.652993 L 113.718664 243.610994 L 116.248239 231.005996 L 131.172729 228.484996 L 126.366537 221.174097 L 120.042601 221.174097 L 120.042601 212.350598 L 148.626793 204.787599 L 152.421155 211.090098 L 162.539454 201.006099 L 168.86339 214.871598 L 179.993518 223.695097 L 196.182796 219.913597 L 219.960797 208.569098 L 231.343883 198.4851 L 226.284733 192.4347 L 214.901648 177.308702 L 208.830669 163.695304 L 225.019946 168.485203 L 239.944436 172.266703 L 248.797947 162.434804 L 268.781587 156.132305 Z M 281.176502 144.787806 " stroke="#000000" stroke-width="1.25" stroke-opacity="1" stroke-miterlimit="4"/></g><g clip-path="url(#e4d0e361c7)"><path fill="#009440" d="M 0.59375 48.667969 L 704.40625 48.667969 L 704.40625 541.335938 L 0.59375 541.335938 Z M 0.59375 48.667969 " fill-opacity="1" fill-rule="nonzero"/></g><path fill="#ffcb00" d="M 76.480469 295 L 352.5 481.511719 L 628.519531 295 L 352.5 108.492188 Z M 76.480469 295 " fill-opacity="1" fill-rule="nonzero"/><path fill="#302681" d="M 475.667969 295 C 475.667969 297.015625 475.617188 299.03125 475.519531 301.042969 C 475.417969 303.058594 475.269531 305.066406 475.074219 307.074219 C 474.875 309.078125 474.628906 311.078125 474.332031 313.074219 C 474.039062 315.066406 473.691406 317.050781 473.300781 319.03125 C 472.90625 321.007812 472.464844 322.972656 471.976562 324.929688 C 471.484375 326.882812 470.949219 328.824219 470.363281 330.753906 C 469.777344 332.683594 469.144531 334.597656 468.464844 336.496094 C 467.789062 338.390625 467.0625 340.273438 466.292969 342.132812 C 465.519531 343.996094 464.703125 345.839844 463.839844 347.660156 C 462.980469 349.484375 462.074219 351.285156 461.125 353.0625 C 460.171875 354.839844 459.179688 356.59375 458.144531 358.320312 C 457.105469 360.050781 456.027344 361.753906 454.910156 363.429688 C 453.789062 365.105469 452.628906 366.753906 451.429688 368.371094 C 450.226562 369.988281 448.988281 371.578125 447.707031 373.136719 C 446.429688 374.695312 445.113281 376.222656 443.761719 377.714844 C 442.40625 379.207031 441.015625 380.667969 439.59375 382.09375 C 438.167969 383.519531 436.707031 384.90625 435.214844 386.261719 C 433.71875 387.613281 432.195312 388.929688 430.636719 390.210938 C 429.078125 391.488281 427.488281 392.726562 425.871094 393.929688 C 424.25 395.128906 422.605469 396.289062 420.925781 397.410156 C 419.25 398.53125 417.550781 399.609375 415.820312 400.644531 C 414.089844 401.679688 412.339844 402.675781 410.558594 403.625 C 408.78125 404.574219 406.984375 405.480469 405.160156 406.34375 C 403.339844 407.203125 401.496094 408.019531 399.632812 408.792969 C 397.769531 409.5625 395.890625 410.289062 393.992188 410.96875 C 392.09375 411.648438 390.183594 412.277344 388.253906 412.863281 C 386.324219 413.449219 384.382812 413.988281 382.425781 414.476562 C 380.472656 414.964844 378.503906 415.40625 376.527344 415.800781 C 374.550781 416.195312 372.566406 416.539062 370.570312 416.835938 C 368.578125 417.128906 366.578125 417.375 364.574219 417.574219 C 362.566406 417.773438 360.558594 417.921875 358.542969 418.019531 C 356.53125 418.117188 354.515625 418.167969 352.5 418.167969 C 350.484375 418.167969 348.46875 418.117188 346.457031 418.019531 C 344.441406 417.921875 342.433594 417.773438 340.425781 417.574219 C 338.421875 417.375 336.421875 417.128906 334.425781 416.835938 C 332.433594 416.539062 330.449219 416.195312 328.472656 415.800781 C 326.496094 415.40625 324.527344 414.964844 322.574219 414.476562 C 320.617188 413.988281 318.675781 413.449219 316.746094 412.863281 C 314.816406 412.277344 312.902344 411.648438 311.007812 410.96875 C 309.109375 410.289062 307.226562 409.5625 305.367188 408.792969 C 303.503906 408.019531 301.660156 407.203125 299.839844 406.34375 C 298.015625 405.480469 296.21875 404.574219 294.441406 403.625 C 292.660156 402.675781 290.910156 401.679688 289.179688 400.644531 C 287.449219 399.609375 285.75 398.53125 284.074219 397.410156 C 282.394531 396.289062 280.75 395.128906 279.128906 393.929688 C 277.511719 392.726562 275.921875 391.488281 274.363281 390.210938 C 272.804688 388.929688 271.28125 387.613281 269.785156 386.261719 C 268.292969 384.90625 266.832031 383.519531 265.40625 382.09375 C 263.984375 380.667969 262.59375 379.207031 261.238281 377.714844 C 259.886719 376.222656 258.570312 374.695312 257.289062 373.136719 C 256.011719 371.578125 254.773438 369.988281 253.570312 368.371094 C 252.371094 366.753906 251.210938 365.105469 250.089844 363.429688 C 248.972656 361.753906 247.894531 360.050781 246.855469 358.320312 C 245.820312 356.59375 244.828125 354.839844 243.875 353.0625 C 242.925781 351.285156 242.019531 349.484375 241.160156 347.660156 C 240.296875 345.839844 239.480469 343.996094 238.707031 342.132812 C 237.9375 340.273438 237.210938 338.390625 236.53125 336.496094 C 235.855469 334.597656 235.222656 332.683594 234.636719 330.753906 C 234.050781 328.824219 233.515625 326.882812 233.023438 324.929688 C 232.535156 322.972656 232.09375 321.007812 231.699219 319.03125 C 231.308594 317.050781 230.960938 315.066406 230.667969 313.074219 C 230.371094 311.078125 230.125 309.078125 229.925781 307.074219 C 229.730469 305.066406 229.582031 303.058594 229.480469 301.042969 C 229.382812 299.03125 229.332031 297.015625 229.332031 295 C 229.332031 292.984375 229.382812 290.96875 229.480469 288.957031 C 229.582031 286.945312 229.730469 284.933594 229.925781 282.929688 C 230.125 280.921875 230.371094 278.921875 230.667969 276.929688 C 230.960938 274.933594 231.308594 272.949219 231.699219 270.972656 C 232.09375 268.996094 232.535156 267.027344 233.023438 265.074219 C 233.515625 263.117188 234.050781 261.175781 234.636719 259.246094 C 235.222656 257.320312 235.855469 255.40625 236.53125 253.507812 C 237.210938 251.609375 237.9375 249.730469 238.707031 247.867188 C 239.480469 246.003906 240.296875 244.164062 241.160156 242.339844 C 242.019531 240.519531 242.925781 238.71875 243.875 236.941406 C 244.828125 235.164062 245.820312 233.410156 246.855469 231.679688 C 247.894531 229.953125 248.972656 228.25 250.089844 226.574219 C 251.210938 224.898438 252.371094 223.25 253.570312 221.628906 C 254.773438 220.011719 256.011719 218.421875 257.289062 216.863281 C 258.570312 215.304688 259.886719 213.78125 261.238281 212.289062 C 262.59375 210.792969 263.984375 209.335938 265.40625 207.910156 C 266.832031 206.484375 268.292969 205.09375 269.785156 203.742188 C 271.28125 202.386719 272.804688 201.070312 274.363281 199.792969 C 275.921875 198.511719 277.511719 197.273438 279.128906 196.074219 C 280.75 194.871094 282.394531 193.710938 284.074219 192.589844 C 285.75 191.472656 287.449219 190.394531 289.179688 189.355469 C 290.910156 188.320312 292.660156 187.328125 294.441406 186.378906 C 296.21875 185.425781 298.015625 184.519531 299.839844 183.660156 C 301.660156 182.796875 303.503906 181.980469 305.367188 181.210938 C 307.226562 180.4375 309.109375 179.714844 311.007812 179.035156 C 312.902344 178.355469 314.816406 177.722656 316.746094 177.136719 C 318.675781 176.550781 320.617188 176.015625 322.574219 175.527344 C 324.527344 175.035156 326.496094 174.59375 328.472656 174.199219 C 330.449219 173.808594 332.433594 173.464844 334.425781 173.167969 C 336.421875 172.871094 338.421875 172.625 340.425781 172.425781 C 342.433594 172.230469 344.441406 172.082031 346.457031 171.984375 C 348.46875 171.882812 350.484375 171.835938 352.5 171.835938 C 354.515625 171.835938 356.53125 171.882812 358.542969 171.984375 C 360.558594 172.082031 362.566406 172.230469 364.574219 172.425781 C 366.578125 172.625 368.578125 172.871094 370.570312 173.167969 C 372.566406 173.464844 374.550781 173.808594 376.527344 174.199219 C 378.503906 174.59375 380.472656 175.035156 382.425781 175.527344 C 384.382812 176.015625 386.324219 176.550781 388.253906 177.136719 C 390.183594 177.722656 392.09375 178.355469 393.992188 179.035156 C 395.890625 179.714844 397.769531 180.4375 399.632812 181.210938 C 401.496094 181.980469 403.339844 182.796875 405.160156 183.660156 C 406.984375 184.519531 408.78125 185.425781 410.558594 186.378906 C 412.339844 187.328125 414.089844 188.320312 415.820312 189.355469 C 417.550781 190.394531 419.25 191.472656 420.925781 192.589844 C 422.605469 193.710938 424.25 194.871094 425.871094 196.074219 C 427.488281 197.273438 429.078125 198.511719 430.636719 199.792969 C 432.195312 201.070312 433.71875 202.386719 435.214844 203.742188 C 436.707031 205.09375 438.167969 206.484375 439.59375 207.910156 C 441.015625 209.335938 442.40625 210.792969 443.761719 212.289062 C 445.113281 213.78125 446.429688 215.304688 447.707031 216.863281 C 448.988281 218.421875 450.226562 220.011719 451.429688 221.628906 C 452.628906 223.25 453.789062 224.898438 454.910156 226.574219 C 456.027344 228.25 457.105469 229.953125 458.144531 231.679688 C 459.179688 233.410156 460.171875 235.164062 461.125 236.941406 C 462.074219 238.71875 462.980469 240.519531 463.839844 242.339844 C 464.703125 244.164062 465.519531 246.003906 466.292969 247.867188 C 467.0625 249.730469 467.789062 251.609375 468.464844 253.507812 C 469.144531 255.40625 469.777344 257.320312 470.363281 259.246094 C 470.949219 261.175781 471.484375 263.117188 471.976562 265.074219 C 472.464844 267.027344 472.90625 268.996094 473.300781 270.972656 C 473.691406 272.949219 474.039062 274.933594 474.332031 276.929688 C 474.628906 278.921875 474.875 280.921875 475.074219 282.929688 C 475.269531 284.933594 475.417969 286.945312 475.519531 288.957031 C 475.617188 290.96875 475.667969 292.984375 475.667969 295 Z M 475.667969 295 " fill-opacity="1" fill-rule="nonzero"/><g clip-path="url(#8d3bcde522)"><g clip-path="url(#78a7a6a234)"><path fill="#ffffff" d="M -17 541.335938 C -17 376.136719 116.921875 242.214844 282.117188 242.214844 C 447.316406 242.214844 581.238281 376.136719 581.238281 541.335938 L 563.644531 541.335938 C 563.644531 385.855469 437.597656 259.808594 282.117188 259.808594 C 126.640625 259.808594 0.59375 385.855469 0.59375 541.335938 Z M -17 541.335938 " fill-opacity="1" fill-rule="nonzero"/></g></g><path fill="#009440" d="M 247.449219 259 C 250.34375 258.648438 252.367188 255.75 251.976562 252.53125 C 251.582031 249.316406 248.914062 247 246.019531 247.351562 C 243.128906 247.703125 241.101562 250.605469 241.496094 253.820312 C 241.890625 257.039062 244.558594 259.351562 247.449219 259 M 247.1875 256.832031 C 248.886719 256.621094 250.066406 254.820312 249.8125 252.792969 C 249.5625 250.765625 247.984375 249.300781 246.289062 249.515625 C 244.59375 249.726562 243.410156 251.527344 243.664062 253.554688 C 243.917969 255.582031 245.492188 257.042969 247.1875 256.832031 " fill-opacity="1" fill-rule="evenodd"/><path fill="#009440" d="M 257.015625 257.9375 L 259.1875 257.785156 L 258.886719 253.433594 L 263.566406 253.101562 C 265.601562 252.960938 267.128906 251.203125 266.988281 249.167969 C 266.847656 247.136719 265.085938 245.609375 263.054688 245.75 L 256.367188 246.210938 L 257.019531 257.925781 Z M 258.722656 251.265625 L 263.234375 250.949219 C 264.066406 250.894531 264.691406 250.167969 264.636719 249.335938 C 264.582031 248.507812 263.855469 247.878906 263.023438 247.9375 L 258.511719 248.253906 Z M 258.722656 251.265625 " fill-opacity="1" fill-rule="evenodd"/><path fill="#009440" d="M 266.960938 257.242188 C 266.839844 255.566406 266.585938 251.890625 264.082031 252.070312 L 260.90625 252.292969 C 264.585938 252.035156 264.839844 255.714844 264.960938 257.390625 " fill-opacity="1" fill-rule="nonzero"/><path fill="#009440" d="M 271.878906 257.015625 L 277.410156 256.917969 C 280.183594 256.867188 282.402344 254.582031 282.351562 251.800781 L 282.324219 250.125 C 282.273438 247.351562 279.988281 245.136719 277.207031 245.183594 L 271.675781 245.285156 L 271.878906 257.007812 Z M 274.019531 254.800781 L 277.199219 254.742188 C 278.957031 254.714844 280.359375 253.265625 280.324219 251.503906 L 280.308594 250.5 C 280.28125 248.738281 278.832031 247.339844 277.074219 247.375 L 273.890625 247.429688 Z M 274.019531 254.800781 " fill-opacity="1" fill-rule="evenodd"/><path fill="#009440" d="M 286.769531 256.867188 L 297.320312 257.234375 L 297.398438 255.058594 L 288.855469 254.765625 L 288.960938 251.75 L 295.660156 251.984375 L 295.730469 249.972656 L 289.03125 249.738281 L 289.113281 247.394531 L 297.152344 247.675781 L 297.230469 245.503906 L 287.179688 245.148438 L 286.769531 256.875 Z M 286.769531 256.867188 " fill-opacity="1" fill-rule="nonzero"/><path fill="#009440" d="M 301.648438 257.5 L 303.65625 257.679688 L 304.359375 249.660156 L 305.992188 257.882812 L 307.828125 258.042969 L 310.871094 250.238281 L 310.164062 258.253906 L 312.171875 258.429688 L 313.191406 246.746094 L 310.269531 246.496094 L 307.230469 254.300781 L 305.597656 246.078125 L 302.675781 245.824219 L 301.65625 257.507812 Z M 301.648438 257.5 " fill-opacity="1" fill-rule="nonzero"/><path fill="#009440" d="M 325.960938 260.238281 L 334.628906 261.730469 L 334.96875 259.746094 L 328.28125 258.601562 L 328.738281 255.960938 L 334.1875 256.898438 L 334.523438 254.910156 L 329.078125 253.976562 L 329.386719 252.160156 L 335.867188 253.273438 L 336.207031 251.289062 L 327.738281 249.832031 L 325.953125 260.234375 Z M 325.960938 260.238281 " fill-opacity="1" fill-rule="nonzero"/><path fill="#009440" d="M 348.226562 264.617188 L 350.339844 265.160156 L 351.429688 260.945312 L 355.96875 262.117188 C 357.941406 262.625 359.953125 261.441406 360.460938 259.472656 C 360.96875 257.5 359.785156 255.488281 357.8125 254.980469 L 351.324219 253.308594 L 348.226562 264.625 Z M 351.980469 258.832031 L 356.355469 259.964844 C 357.167969 260.175781 357.984375 259.691406 358.195312 258.882812 C 358.40625 258.070312 357.917969 257.253906 357.109375 257.042969 L 352.730469 255.910156 Z M 351.980469 258.832031 " fill-opacity="1" fill-rule="evenodd"/><path fill="#009440" d="M 362.621094 268.453125 L 364.695312 269.109375 L 366.007812 264.957031 L 370.480469 266.363281 C 372.425781 266.976562 374.492188 265.898438 375.105469 263.957031 C 375.71875 262.011719 374.640625 259.945312 372.699219 259.332031 L 366.308594 257.320312 Z M 366.667969 262.878906 L 370.980469 264.238281 C 371.777344 264.492188 372.621094 264.046875 372.875 263.253906 C 373.128906 262.457031 372.683594 261.613281 371.890625 261.359375 L 367.574219 260 Z M 366.667969 262.878906 " fill-opacity="1" fill-rule="evenodd"/><path fill="#009440" d="M 372.128906 271.453125 C 372.636719 269.855469 373.742188 266.335938 371.339844 265.582031 L 368.308594 264.625 C 371.828125 265.738281 370.714844 269.25 370.207031 270.847656 " fill-opacity="1" fill-rule="nonzero"/><path fill="#009440" d="M 381.734375 274.894531 C 384.46875 275.914062 387.597656 274.28125 388.730469 271.246094 C 389.863281 268.214844 388.570312 264.925781 385.839844 263.90625 C 383.109375 262.886719 379.976562 264.519531 378.84375 267.550781 C 377.710938 270.585938 379.003906 273.871094 381.734375 274.894531 M 382.503906 272.851562 C 384.109375 273.449219 385.988281 272.394531 386.699219 270.488281 C 387.410156 268.578125 386.691406 266.546875 385.085938 265.949219 C 383.480469 265.347656 381.601562 266.40625 380.890625 268.3125 C 380.179688 270.21875 380.898438 272.253906 382.503906 272.851562 " fill-opacity="1" fill-rule="evenodd"/><g clip-path="url(#0faeb37c3e)"><g clip-path="url(#3292623663)"><path fill="#009440" d="M 395.546875 280.46875 C 398.21875 281.628906 401.4375 280.164062 402.722656 277.195312 C 404.011719 274.222656 402.894531 270.875 400.21875 269.714844 C 397.542969 268.550781 394.328125 270.015625 393.039062 272.984375 C 391.75 275.957031 392.871094 279.304688 395.546875 280.46875 M 396.417969 278.476562 C 397.988281 279.15625 399.914062 278.199219 400.730469 276.328125 C 401.546875 274.457031 400.929688 272.394531 399.359375 271.710938 C 397.789062 271.027344 395.863281 271.984375 395.046875 273.859375 C 394.230469 275.730469 394.847656 277.792969 396.417969 278.476562 " fill-opacity="1" fill-rule="evenodd"/></g></g><path fill="#009440" d="M 398.65625 275.429688 L 402.730469 277.203125 L 402.0625 278.734375 L 397.988281 276.960938 Z M 398.65625 275.429688 " fill-opacity="1" fill-rule="nonzero"/><path fill="#009440" d="M 401.191406 276.527344 L 402.722656 277.195312 L 400.386719 282.570312 L 398.851562 281.902344 Z M 401.191406 276.527344 " fill-opacity="1" fill-rule="nonzero"/><path fill="#009440" d="M 404.320312 284.410156 L 406.269531 285.378906 L 408.214844 281.480469 L 412.414062 283.570312 C 414.238281 284.480469 416.449219 283.738281 417.355469 281.917969 C 418.265625 280.09375 417.523438 277.882812 415.703125 276.976562 L 409.707031 273.984375 Z M 409.183594 279.53125 L 413.230469 281.550781 C 413.976562 281.925781 414.886719 281.621094 415.25 280.875 C 415.617188 280.128906 415.320312 279.222656 414.574219 278.855469 L 410.527344 276.835938 L 409.183594 279.539062 Z M 409.183594 279.53125 " fill-opacity="1" fill-rule="evenodd"/><path fill="#009440" d="M 413.238281 288.855469 C 413.984375 287.359375 415.632812 284.054688 413.378906 282.9375 L 410.527344 281.515625 C 413.828125 283.164062 412.183594 286.457031 411.4375 287.960938 " fill-opacity="1" fill-rule="nonzero"/><path fill="#009440" d="M 417.59375 291.15625 L 426.785156 296.359375 L 427.855469 294.464844 L 420.417969 290.257812 L 421.902344 287.632812 L 427.738281 290.933594 L 428.730469 289.179688 L 422.894531 285.878906 L 424.050781 283.839844 L 431.050781 287.800781 L 432.121094 285.90625 L 423.375 280.960938 L 417.59375 291.171875 Z M 417.59375 291.15625 " fill-opacity="1" fill-rule="nonzero"/><path fill="#009440" d="M 434.710938 296.902344 C 434.078125 297.894531 434.71875 298.992188 436.132812 299.890625 C 437.546875 300.792969 438.511719 300.757812 438.914062 300.125 C 440.195312 298.113281 432.777344 295.175781 435.0625 291.664062 C 437.035156 288.644531 440.40625 290.996094 441.679688 291.804688 C 442.953125 292.613281 444.996094 294.710938 443.402344 297.125 L 441.25 295.753906 C 441.925781 294.691406 441.1875 293.675781 440.054688 292.953125 C 438.921875 292.226562 438.070312 291.9375 437.414062 292.960938 C 436.324219 294.601562 443.59375 297.6875 441.363281 301.1875 C 439.722656 303.761719 436.859375 302.636719 434.953125 301.425781 C 433.324219 300.390625 430.898438 297.949219 432.480469 295.480469 L 434.703125 296.894531 Z M 434.710938 296.902344 " fill-opacity="1" fill-rule="nonzero"/><path fill="#009440" d="M 447.296875 305.21875 C 446.613281 306.175781 447.199219 307.308594 448.5625 308.28125 C 449.929688 309.253906 450.890625 309.273438 451.328125 308.660156 C 452.714844 306.71875 445.460938 303.398438 447.929688 300.011719 C 450.054688 297.105469 453.300781 299.625 454.53125 300.496094 C 455.761719 301.371094 457.691406 303.574219 455.972656 305.902344 L 453.890625 304.417969 C 454.621094 303.398438 453.933594 302.339844 452.84375 301.558594 C 451.75 300.777344 450.914062 300.441406 450.210938 301.433594 C 449.035156 303.011719 456.128906 306.480469 453.722656 309.859375 C 451.949219 312.351562 449.148438 311.074219 447.308594 309.757812 C 445.742188 308.640625 443.445312 306.078125 445.15625 303.691406 L 447.304688 305.226562 Z M 447.296875 305.21875 " fill-opacity="1" fill-rule="nonzero"/><path fill="#009440" d="M 459.199219 318.71875 C 461.476562 320.535156 464.960938 319.949219 466.980469 317.417969 C 469 314.882812 468.785156 311.355469 466.503906 309.542969 C 464.222656 307.726562 460.738281 308.308594 458.71875 310.84375 C 456.699219 313.378906 456.917969 316.902344 459.199219 318.71875 M 460.554688 317.007812 C 461.894531 318.070312 464.011719 317.648438 465.277344 316.050781 C 466.546875 314.453125 466.488281 312.300781 465.144531 311.238281 C 463.800781 310.175781 461.6875 310.597656 460.421875 312.195312 C 459.15625 313.792969 459.210938 315.945312 460.554688 317.007812 " fill-opacity="1" fill-rule="evenodd"/><path fill="#ffffff" d="M 251.953125 267.601562 L 250.320312 272.621094 L 252.832031 273.4375 " fill-opacity="1" fill-rule="nonzero"/><path fill="#ffffff" d="M 251.953125 267.601562 L 253.585938 272.621094 L 251.074219 273.4375 " fill-opacity="1" fill-rule="nonzero"/><path fill="#ffffff" d="M 256.980469 271.246094 L 251.699219 271.246094 C 251.699219 271.246094 251.699219 273.886719 251.699219 273.886719 " fill-opacity="1" fill-rule="nonzero"/><path fill="#ffffff" d="M 256.980469 271.246094 L 252.707031 274.351562 L 251.160156 272.21875 " fill-opacity="1" fill-rule="nonzero"/><path fill="#ffffff" d="M 246.9375 271.246094 L 251.207031 274.351562 L 252.757812 272.21875 " fill-opacity="1" fill-rule="nonzero"/><path fill="#ffffff" d="M 246.9375 271.246094 L 252.214844 271.246094 C 252.214844 271.246094 252.214844 273.886719 252.214844 273.886719 " fill-opacity="1" fill-rule="nonzero"/><path fill="#ffffff" d="M 255.058594 277.152344 L 253.425781 272.132812 L 250.914062 272.949219 " fill-opacity="1" fill-rule="nonzero"/><path fill="#ffffff" d="M 255.058594 277.152344 L 250.785156 274.046875 L 252.332031 271.914062 " fill-opacity="1" fill-rule="nonzero"/><path fill="#ffffff" d="M 248.851562 277.152344 L 253.121094 274.046875 L 251.574219 271.914062 " fill-opacity="1" fill-rule="nonzero"/><path fill="#ffffff" d="M 248.851562 277.152344 L 250.484375 272.132812 L 252.996094 272.949219 " fill-opacity="1" fill-rule="nonzero"/><path fill="#ffffff" d="M 262.847656 319.378906 L 261.214844 324.398438 L 263.730469 325.214844 " fill-opacity="1" fill-rule="nonzero"/><path fill="#ffffff" d="M 262.847656 319.378906 L 264.480469 324.398438 L 261.96875 325.214844 " fill-opacity="1" fill-rule="nonzero"/><path fill="#ffffff" d="M 267.867188 323.035156 L 262.589844 323.035156 C 262.589844 323.035156 262.589844 325.671875 262.589844 325.671875 " fill-opacity="1" fill-rule="nonzero"/><path fill="#ffffff" d="M 267.867188 323.035156 L 263.59375 326.136719 L 262.046875 324.003906 " fill-opacity="1" fill-rule="nonzero"/><path fill="#ffffff" d="M 257.832031 323.035156 L 262.101562 326.136719 L 263.652344 324.003906 " fill-opacity="1" fill-rule="nonzero"/><path fill="#ffffff" d="M 257.832031 323.035156 L 263.109375 323.035156 C 263.109375 323.035156 263.109375 325.671875 263.109375 325.671875 " fill-opacity="1" fill-rule="nonzero"/><path fill="#ffffff" d="M 265.953125 328.929688 L 264.320312 323.914062 L 261.808594 324.730469 " fill-opacity="1" fill-rule="nonzero"/><path fill="#ffffff" d="M 265.953125 328.929688 L 261.679688 325.828125 L 263.230469 323.695312 " fill-opacity="1" fill-rule="nonzero"/><path fill="#ffffff" d="M 259.746094 328.929688 L 264.015625 325.828125 L 262.46875 323.695312 " fill-opacity="1" fill-rule="nonzero"/><path fill="#ffffff" d="M 259.746094 328.929688 L 261.378906 323.914062 L 263.890625 324.730469 " fill-opacity="1" fill-rule="nonzero"/><path fill="#ffffff" d="M 247.765625 331.324219 L 246.40625 335.503906 L 248.5 336.1875 " fill-opacity="1" fill-rule="nonzero"/><path fill="#ffffff" d="M 247.765625 331.324219 L 249.125 335.503906 L 247.035156 336.1875 " fill-opacity="1" fill-rule="nonzero"/><path fill="#ffffff" d="M 251.945312 334.363281 L 247.546875 334.363281 L 247.546875 336.566406 " fill-opacity="1" fill-rule="nonzero"/><path fill="#ffffff" d="M 251.945312 334.363281 L 248.386719 336.949219 L 247.089844 335.167969 " fill-opacity="1" fill-rule="nonzero"/><path fill="#ffffff" d="M 243.585938 334.363281 L 247.148438 336.949219 L 248.441406 335.167969 " fill-opacity="1" fill-rule="nonzero"/><path fill="#ffffff" d="M 243.585938 334.363281 L 247.984375 334.363281 L 247.984375 336.566406 " fill-opacity="1" fill-rule="nonzero"/><path fill="#ffffff" d="M 250.347656 339.277344 L 248.992188 335.097656 L 246.902344 335.78125 " fill-opacity="1" fill-rule="nonzero"/><path fill="#ffffff" d="M 250.347656 339.277344 L 246.789062 336.695312 L 248.082031 334.914062 " fill-opacity="1" fill-rule="nonzero"/><path fill="#ffffff" d="M 245.183594 339.277344 L 248.746094 336.695312 L 247.449219 334.914062 " fill-opacity="1" fill-rule="nonzero"/><path fill="#ffffff" d="M 245.183594 339.277344 L 246.542969 335.097656 L 248.632812 335.78125 " fill-opacity="1" fill-rule="nonzero"/><path fill="#ffffff" d="M 274.910156 314.609375 L 274.136719 317 L 275.335938 317.390625 " fill-opacity="1" fill-rule="nonzero"/><path fill="#ffffff" d="M 274.910156 314.609375 L 275.6875 317 L 274.488281 317.390625 " fill-opacity="1" fill-rule="nonzero"/><path fill="#ffffff" d="M 277.304688 316.339844 L 274.792969 316.339844 C 274.792969 316.339844 274.792969 317.601562 274.792969 317.601562 " fill-opacity="1" fill-rule="nonzero"/><path fill="#ffffff" d="M 277.304688 316.339844 L 275.269531 317.816406 L 274.53125 316.804688 " fill-opacity="1" fill-rule="nonzero"/><path fill="#ffffff" d="M 272.527344 316.339844 L 274.558594 317.816406 L 275.300781 316.804688 " fill-opacity="1" fill-rule="nonzero"/><path fill="#ffffff" d="M 272.527344 316.339844 L 275.039062 316.339844 C 275.039062 316.339844 275.039062 317.601562 275.039062 317.601562 " fill-opacity="1" fill-rule="nonzero"/><path fill="#ffffff" d="M 276.390625 319.15625 L 275.617188 316.761719 L 274.417969 317.148438 " fill-opacity="1" fill-rule="nonzero"/><path fill="#ffffff" d="M 276.390625 319.15625 L 274.355469 317.675781 L 275.09375 316.664062 " fill-opacity="1" fill-rule="nonzero"/><path fill="#ffffff" d="M 273.433594 319.15625 L 275.46875 317.675781 L 274.730469 316.664062 " fill-opacity="1" fill-rule="nonzero"/><path fill="#ffffff" d="M 273.433594 319.15625 L 274.207031 316.761719 L 275.40625 317.148438 " fill-opacity="1" fill-rule="nonzero"/><path fill="#ffffff" d="M 288.488281 332.492188 L 287.128906 336.671875 L 289.21875 337.355469 " fill-opacity="1" fill-rule="nonzero"/><path fill="#ffffff" d="M 288.488281 332.492188 L 289.847656 336.671875 L 287.757812 337.355469 " fill-opacity="1" fill-rule="nonzero"/><path fill="#ffffff" d="M 292.667969 335.535156 L 288.269531 335.535156 L 288.269531 337.734375 " fill-opacity="1" fill-rule="nonzero"/><path fill="#ffffff" d="M 292.667969 335.535156 L 289.109375 338.117188 L 287.8125 336.335938 " fill-opacity="1" fill-rule="nonzero"/><path fill="#ffffff" d="M 284.300781 335.535156 L 287.863281 338.117188 L 289.15625 336.335938 " fill-opacity="1" fill-rule="nonzero"/><path fill="#ffffff" d="M 284.300781 335.535156 L 288.699219 335.535156 L 288.699219 337.734375 " fill-opacity="1" fill-rule="nonzero"/><path fill="#ffffff" d="M 291.070312 340.453125 L 289.714844 336.273438 L 287.621094 336.953125 " fill-opacity="1" fill-rule="nonzero"/><path fill="#ffffff" d="M 291.070312 340.453125 L 287.511719 337.871094 L 288.804688 336.089844 " fill-opacity="1" fill-rule="nonzero"/><path fill="#ffffff" d="M 285.898438 340.453125 L 289.460938 337.871094 L 288.164062 336.089844 " fill-opacity="1" fill-rule="nonzero"/><path fill="#ffffff" d="M 285.898438 340.453125 L 287.257812 336.273438 L 289.347656 336.953125 " fill-opacity="1" fill-rule="nonzero"/><path fill="#ffffff" d="M 284.800781 345.605469 L 283.710938 348.953125 L 285.382812 349.496094 " fill-opacity="1" fill-rule="nonzero"/><path fill="#ffffff" d="M 284.800781 345.605469 L 285.890625 348.953125 L 284.214844 349.496094 " fill-opacity="1" fill-rule="nonzero"/><path fill="#ffffff" d="M 288.144531 348.039062 L 284.625 348.039062 C 284.625 348.039062 284.625 349.800781 284.625 349.800781 " fill-opacity="1" fill-rule="nonzero"/><path fill="#ffffff" d="M 288.144531 348.039062 L 285.292969 350.109375 L 284.257812 348.6875 " fill-opacity="1" fill-rule="nonzero"/><path fill="#ffffff" d="M 281.449219 348.039062 L 284.300781 350.109375 L 285.335938 348.6875 " fill-opacity="1" fill-rule="nonzero"/><path fill="#ffffff" d="M 281.449219 348.039062 L 284.96875 348.039062 C 284.96875 348.039062 284.96875 349.800781 284.96875 349.800781 " fill-opacity="1" fill-rule="nonzero"/><path fill="#ffffff" d="M 286.871094 351.972656 L 285.777344 348.625 L 284.105469 349.164062 " fill-opacity="1" fill-rule="nonzero"/><path fill="#ffffff" d="M 286.871094 351.972656 L 284.019531 349.90625 L 285.054688 348.484375 " fill-opacity="1" fill-rule="nonzero"/><path fill="#ffffff" d="M 282.730469 351.972656 L 285.582031 349.90625 L 284.546875 348.484375 " fill-opacity="1" fill-rule="nonzero"/><path fill="#ffffff" d="M 282.730469 351.972656 L 283.824219 348.625 L 285.496094 349.164062 " fill-opacity="1" fill-rule="nonzero"/><path fill="#ffffff" d="M 390.710938 251.511719 L 389.078125 256.53125 L 391.589844 257.347656 " fill-opacity="1" fill-rule="nonzero"/><path fill="#ffffff" d="M 390.710938 251.511719 L 392.34375 256.53125 L 389.828125 257.347656 " fill-opacity="1" fill-rule="nonzero"/><path fill="#ffffff" d="M 395.726562 255.164062 L 390.449219 255.164062 C 390.449219 255.164062 390.449219 257.804688 390.449219 257.804688 " fill-opacity="1" fill-rule="nonzero"/><path fill="#ffffff" d="M 395.726562 255.164062 L 391.457031 258.269531 L 389.90625 256.136719 " fill-opacity="1" fill-rule="nonzero"/><path fill="#ffffff" d="M 385.683594 255.164062 L 389.957031 258.269531 L 391.503906 256.136719 " fill-opacity="1" fill-rule="nonzero"/><path fill="#ffffff" d="M 385.683594 255.164062 L 390.964844 255.164062 C 390.964844 255.164062 390.964844 257.804688 390.964844 257.804688 " fill-opacity="1" fill-rule="nonzero"/><path fill="#ffffff" d="M 393.804688 261.0625 L 392.171875 256.046875 L 389.660156 256.863281 " fill-opacity="1" fill-rule="nonzero"/><path fill="#ffffff" d="M 393.804688 261.0625 L 389.535156 257.960938 L 391.082031 255.828125 " fill-opacity="1" fill-rule="nonzero"/><path fill="#ffffff" d="M 387.605469 261.0625 L 391.878906 257.960938 L 390.328125 255.828125 " fill-opacity="1" fill-rule="nonzero"/><path fill="#ffffff" d="M 387.605469 261.0625 L 389.238281 256.046875 L 391.75 256.863281 " fill-opacity="1" fill-rule="nonzero"/><path fill="#ffffff" d="M 438.800781 332.957031 L 437.167969 337.976562 L 439.679688 338.792969 " fill-opacity="1" fill-rule="nonzero"/><path fill="#ffffff" d="M 438.800781 332.957031 L 440.433594 337.976562 L 437.921875 338.792969 " fill-opacity="1" fill-rule="nonzero"/><path fill="#ffffff" d="M 443.820312 336.601562 L 438.539062 336.601562 C 438.539062 336.601562 438.539062 339.242188 438.539062 339.242188 " fill-opacity="1" fill-rule="nonzero"/><path fill="#ffffff" d="M 443.820312 336.601562 L 439.546875 339.707031 L 438 337.574219 " fill-opacity="1" fill-rule="nonzero"/><path fill="#ffffff" d="M 433.78125 336.601562 L 438.054688 339.707031 L 439.601562 337.574219 " fill-opacity="1" fill-rule="nonzero"/><path fill="#ffffff" d="M 433.78125 336.601562 L 439.0625 336.601562 C 439.0625 336.601562 439.0625 339.242188 439.0625 339.242188 " fill-opacity="1" fill-rule="nonzero"/><path fill="#ffffff" d="M 441.90625 342.507812 L 440.273438 337.488281 L 437.757812 338.304688 " fill-opacity="1" fill-rule="nonzero"/><path fill="#ffffff" d="M 441.90625 342.507812 L 437.632812 339.402344 L 439.179688 337.273438 " fill-opacity="1" fill-rule="nonzero"/><path fill="#ffffff" d="M 435.699219 342.507812 L 439.96875 339.402344 L 438.421875 337.273438 " fill-opacity="1" fill-rule="nonzero"/><path fill="#ffffff" d="M 435.699219 342.507812 L 437.332031 337.488281 L 439.84375 338.304688 " fill-opacity="1" fill-rule="nonzero"/><path fill="#ffffff" d="M 455.890625 335.890625 L 454.796875 339.242188 L 456.472656 339.785156 " fill-opacity="1" fill-rule="nonzero"/><path fill="#ffffff" d="M 455.890625 335.890625 L 456.980469 339.242188 L 455.304688 339.785156 " fill-opacity="1" fill-rule="nonzero"/><path fill="#ffffff" d="M 459.238281 338.320312 L 455.71875 338.320312 C 455.71875 338.320312 455.71875 340.078125 455.71875 340.078125 " fill-opacity="1" fill-rule="nonzero"/><path fill="#ffffff" d="M 459.238281 338.320312 L 456.390625 340.390625 L 455.355469 338.96875 " fill-opacity="1" fill-rule="nonzero"/><path fill="#ffffff" d="M 452.546875 338.320312 L 455.398438 340.390625 L 456.429688 338.96875 " fill-opacity="1" fill-rule="nonzero"/><path fill="#ffffff" d="M 452.546875 338.320312 L 456.066406 338.320312 C 456.066406 338.320312 456.066406 340.078125 456.066406 340.078125 " fill-opacity="1" fill-rule="nonzero"/><path fill="#ffffff" d="M 457.957031 342.253906 L 456.867188 338.90625 L 455.191406 339.445312 " fill-opacity="1" fill-rule="nonzero"/><path fill="#ffffff" d="M 457.957031 342.253906 L 455.109375 340.183594 L 456.144531 338.765625 " fill-opacity="1" fill-rule="nonzero"/><path fill="#ffffff" d="M 453.828125 342.253906 L 456.679688 340.183594 L 455.644531 338.765625 " fill-opacity="1" fill-rule="nonzero"/><path fill="#ffffff" d="M 453.828125 342.253906 L 454.917969 338.90625 L 456.59375 339.445312 " fill-opacity="1" fill-rule="nonzero"/><path fill="#ffffff" d="M 443.828125 344.726562 L 442.46875 348.90625 L 444.558594 349.589844 " fill-opacity="1" fill-rule="nonzero"/><path fill="#ffffff" d="M 443.828125 344.726562 L 445.183594 348.90625 L 443.09375 349.589844 " fill-opacity="1" fill-rule="nonzero"/><path fill="#ffffff" d="M 448.015625 347.765625 L 443.613281 347.765625 L 443.613281 349.96875 " fill-opacity="1" fill-rule="nonzero"/><path fill="#ffffff" d="M 448.015625 347.765625 L 444.453125 350.347656 L 443.15625 348.566406 " fill-opacity="1" fill-rule="nonzero"/><path fill="#ffffff" d="M 439.644531 347.765625 L 443.207031 350.347656 L 444.5 348.566406 " fill-opacity="1" fill-rule="nonzero"/><path fill="#ffffff" d="M 439.644531 347.765625 L 444.042969 347.765625 L 444.042969 349.96875 " fill-opacity="1" fill-rule="nonzero"/><path fill="#ffffff" d="M 446.417969 352.683594 L 445.058594 348.503906 L 442.96875 349.1875 " fill-opacity="1" fill-rule="nonzero"/><path fill="#ffffff" d="M 446.417969 352.683594 L 442.855469 350.101562 L 444.148438 348.320312 " fill-opacity="1" fill-rule="nonzero"/><path fill="#ffffff" d="M 441.242188 352.683594 L 444.804688 350.101562 L 443.507812 348.320312 " fill-opacity="1" fill-rule="nonzero"/><path fill="#ffffff" d="M 441.242188 352.683594 L 442.601562 348.503906 L 444.691406 349.1875 " fill-opacity="1" fill-rule="nonzero"/><path fill="#ffffff" d="M 414.167969 370.535156 L 412.808594 374.714844 L 414.898438 375.398438 " fill-opacity="1" fill-rule="nonzero"/><path fill="#ffffff" d="M 414.167969 370.535156 L 415.527344 374.714844 L 413.4375 375.398438 " fill-opacity="1" fill-rule="nonzero"/><path fill="#ffffff" d="M 418.347656 373.574219 L 413.949219 373.574219 L 413.949219 375.777344 " fill-opacity="1" fill-rule="nonzero"/><path fill="#ffffff" d="M 418.347656 373.574219 L 414.785156 376.15625 L 413.492188 374.375 " fill-opacity="1" fill-rule="nonzero"/><path fill="#ffffff" d="M 409.980469 373.574219 L 413.542969 376.15625 L 414.835938 374.375 " fill-opacity="1" fill-rule="nonzero"/><path fill="#ffffff" d="M 409.980469 373.574219 L 414.378906 373.574219 L 414.378906 375.777344 " fill-opacity="1" fill-rule="nonzero"/><path fill="#ffffff" d="M 416.75 378.492188 L 415.390625 374.3125 L 413.300781 374.996094 " fill-opacity="1" fill-rule="nonzero"/><path fill="#ffffff" d="M 416.75 378.492188 L 413.1875 375.910156 L 414.484375 374.128906 " fill-opacity="1" fill-rule="nonzero"/><path fill="#ffffff" d="M 411.585938 378.492188 L 415.144531 375.910156 L 413.851562 374.128906 " fill-opacity="1" fill-rule="nonzero"/><path fill="#ffffff" d="M 411.585938 378.492188 L 412.941406 374.3125 L 415.035156 374.996094 " fill-opacity="1" fill-rule="nonzero"/><path fill="#ffffff" d="M 414 383.816406 L 412.90625 387.164062 L 414.582031 387.707031 " fill-opacity="1" fill-rule="nonzero"/><path fill="#ffffff" d="M 414 383.816406 L 415.089844 387.164062 L 413.414062 387.707031 " fill-opacity="1" fill-rule="nonzero"/><path fill="#ffffff" d="M 417.347656 386.25 L 413.828125 386.25 C 413.828125 386.25 413.828125 388.007812 413.828125 388.007812 " fill-opacity="1" fill-rule="nonzero"/><path fill="#ffffff" d="M 417.347656 386.25 L 414.5 388.320312 L 413.464844 386.898438 " fill-opacity="1" fill-rule="nonzero"/><path fill="#ffffff" d="M 410.65625 386.25 L 413.507812 388.320312 L 414.539062 386.898438 " fill-opacity="1" fill-rule="nonzero"/><path fill="#ffffff" d="M 410.65625 386.25 L 414.175781 386.25 C 414.175781 386.25 414.175781 388.007812 414.175781 388.007812 " fill-opacity="1" fill-rule="nonzero"/><path fill="#ffffff" d="M 416.066406 390.183594 L 414.976562 386.832031 L 413.300781 387.375 " fill-opacity="1" fill-rule="nonzero"/><path fill="#ffffff" d="M 416.066406 390.183594 L 413.21875 388.113281 L 414.253906 386.691406 " fill-opacity="1" fill-rule="nonzero"/><path fill="#ffffff" d="M 411.929688 390.183594 L 414.78125 388.113281 L 413.746094 386.691406 " fill-opacity="1" fill-rule="nonzero"/><path fill="#ffffff" d="M 411.929688 390.183594 L 413.019531 386.832031 L 414.695312 387.375 " fill-opacity="1" fill-rule="nonzero"/><path fill="#ffffff" d="M 426.398438 361.695312 L 425.308594 365.042969 L 426.984375 365.585938 " fill-opacity="1" fill-rule="nonzero"/><path fill="#ffffff" d="M 426.398438 361.695312 L 427.492188 365.042969 L 425.816406 365.585938 " fill-opacity="1" fill-rule="nonzero"/><path fill="#ffffff" d="M 429.75 364.128906 L 426.230469 364.128906 C 426.230469 364.128906 426.230469 365.886719 426.230469 365.886719 " fill-opacity="1" fill-rule="nonzero"/><path fill="#ffffff" d="M 429.75 364.128906 L 426.898438 366.199219 L 425.863281 364.777344 " fill-opacity="1" fill-rule="nonzero"/><path fill="#ffffff" d="M 423.050781 364.128906 L 425.898438 366.199219 L 426.933594 364.777344 " fill-opacity="1" fill-rule="nonzero"/><path fill="#ffffff" d="M 423.050781 364.128906 L 426.570312 364.128906 C 426.570312 364.128906 426.570312 365.886719 426.570312 365.886719 " fill-opacity="1" fill-rule="nonzero"/><path fill="#ffffff" d="M 428.46875 368.0625 L 427.378906 364.714844 L 425.703125 365.253906 " fill-opacity="1" fill-rule="nonzero"/><path fill="#ffffff" d="M 428.46875 368.0625 L 425.617188 365.992188 L 426.652344 364.574219 " fill-opacity="1" fill-rule="nonzero"/><path fill="#ffffff" d="M 424.332031 368.0625 L 427.179688 365.992188 L 426.148438 364.574219 " fill-opacity="1" fill-rule="nonzero"/><path fill="#ffffff" d="M 424.332031 368.0625 L 425.421875 364.714844 L 427.097656 365.253906 " fill-opacity="1" fill-rule="nonzero"/><path fill="#ffffff" d="M 436.289062 354.613281 L 434.929688 358.792969 L 437.019531 359.476562 " fill-opacity="1" fill-rule="nonzero"/><path fill="#ffffff" d="M 436.289062 354.613281 L 437.648438 358.792969 L 435.554688 359.476562 " fill-opacity="1" fill-rule="nonzero"/><path fill="#ffffff" d="M 440.46875 357.652344 L 436.070312 357.652344 L 436.070312 359.855469 " fill-opacity="1" fill-rule="nonzero"/><path fill="#ffffff" d="M 440.46875 357.652344 L 436.90625 360.238281 L 435.613281 358.457031 " fill-opacity="1" fill-rule="nonzero"/><path fill="#ffffff" d="M 432.101562 357.652344 L 435.660156 360.238281 L 436.957031 358.457031 " fill-opacity="1" fill-rule="nonzero"/><path fill="#ffffff" d="M 432.101562 357.652344 L 436.5 357.652344 L 436.5 359.855469 " fill-opacity="1" fill-rule="nonzero"/><path fill="#ffffff" d="M 438.871094 362.574219 L 437.511719 358.394531 L 435.421875 359.074219 " fill-opacity="1" fill-rule="nonzero"/><path fill="#ffffff" d="M 438.871094 362.574219 L 435.308594 359.992188 L 436.605469 358.210938 " fill-opacity="1" fill-rule="nonzero"/><path fill="#ffffff" d="M 433.699219 362.574219 L 437.257812 359.992188 L 435.964844 358.210938 " fill-opacity="1" fill-rule="nonzero"/><path fill="#ffffff" d="M 433.699219 362.574219 L 435.058594 358.394531 L 437.148438 359.074219 " fill-opacity="1" fill-rule="nonzero"/><path fill="#ffffff" d="M 413.660156 359.351562 L 412.570312 362.699219 L 414.246094 363.242188 " fill-opacity="1" fill-rule="nonzero"/><path fill="#ffffff" d="M 413.660156 359.351562 L 414.75 362.699219 L 413.078125 363.242188 " fill-opacity="1" fill-rule="nonzero"/><path fill="#ffffff" d="M 417.011719 361.777344 L 413.492188 361.777344 C 413.492188 361.777344 413.492188 363.539062 413.492188 363.539062 " fill-opacity="1" fill-rule="nonzero"/><path fill="#ffffff" d="M 417.011719 361.777344 L 414.160156 363.847656 L 413.125 362.425781 " fill-opacity="1" fill-rule="nonzero"/><path fill="#ffffff" d="M 410.316406 361.777344 L 413.167969 363.847656 L 414.203125 362.425781 " fill-opacity="1" fill-rule="nonzero"/><path fill="#ffffff" d="M 410.316406 361.777344 L 413.835938 361.777344 C 413.835938 361.777344 413.835938 363.539062 413.835938 363.539062 " fill-opacity="1" fill-rule="nonzero"/><path fill="#ffffff" d="M 415.730469 365.710938 L 414.640625 362.363281 L 412.964844 362.90625 " fill-opacity="1" fill-rule="nonzero"/><path fill="#ffffff" d="M 415.730469 365.710938 L 412.878906 363.644531 L 413.914062 362.222656 " fill-opacity="1" fill-rule="nonzero"/><path fill="#ffffff" d="M 411.597656 365.710938 L 414.449219 363.644531 L 413.414062 362.222656 " fill-opacity="1" fill-rule="nonzero"/><path fill="#ffffff" d="M 411.597656 365.710938 L 412.691406 362.363281 L 414.363281 362.90625 " fill-opacity="1" fill-rule="nonzero"/><path fill="#ffffff" d="M 305.578125 295.628906 L 304.21875 299.808594 L 306.308594 300.492188 " fill-opacity="1" fill-rule="nonzero"/><path fill="#ffffff" d="M 305.578125 295.628906 L 306.933594 299.808594 L 304.84375 300.492188 " fill-opacity="1" fill-rule="nonzero"/><path fill="#ffffff" d="M 309.765625 298.667969 L 305.367188 298.667969 L 305.367188 300.871094 " fill-opacity="1" fill-rule="nonzero"/><path fill="#ffffff" d="M 309.765625 298.667969 L 306.203125 301.25 L 304.910156 299.46875 " fill-opacity="1" fill-rule="nonzero"/><path fill="#ffffff" d="M 301.394531 298.667969 L 304.957031 301.25 L 306.253906 299.46875 " fill-opacity="1" fill-rule="nonzero"/><path fill="#ffffff" d="M 301.394531 298.667969 L 305.796875 298.667969 L 305.796875 300.871094 " fill-opacity="1" fill-rule="nonzero"/><path fill="#ffffff" d="M 308.167969 303.585938 L 306.808594 299.40625 L 304.71875 300.089844 " fill-opacity="1" fill-rule="nonzero"/><path fill="#ffffff" d="M 308.167969 303.585938 L 304.605469 301.003906 L 305.902344 299.222656 " fill-opacity="1" fill-rule="nonzero"/><path fill="#ffffff" d="M 302.992188 303.585938 L 306.554688 301.003906 L 305.261719 299.222656 " fill-opacity="1" fill-rule="nonzero"/><path fill="#ffffff" d="M 302.992188 303.585938 L 304.351562 299.40625 L 306.441406 300.089844 " fill-opacity="1" fill-rule="nonzero"/><path fill="#ffffff" d="M 386.015625 285.28125 L 384.925781 288.632812 L 386.597656 289.171875 " fill-opacity="1" fill-rule="nonzero"/><path fill="#ffffff" d="M 386.015625 285.28125 L 387.105469 288.632812 L 385.429688 289.171875 " fill-opacity="1" fill-rule="nonzero"/><path fill="#ffffff" d="M 389.359375 287.714844 L 385.839844 287.714844 C 385.839844 287.714844 385.839844 289.476562 385.839844 289.476562 " fill-opacity="1" fill-rule="nonzero"/><path fill="#ffffff" d="M 389.359375 287.714844 L 386.507812 289.785156 L 385.472656 288.363281 " fill-opacity="1" fill-rule="nonzero"/><path fill="#ffffff" d="M 382.664062 287.714844 L 385.515625 289.785156 L 386.550781 288.363281 " fill-opacity="1" fill-rule="nonzero"/><path fill="#ffffff" d="M 382.664062 287.714844 L 386.183594 287.714844 C 386.183594 287.714844 386.183594 289.476562 386.183594 289.476562 " fill-opacity="1" fill-rule="nonzero"/><path fill="#ffffff" d="M 388.085938 291.652344 L 386.992188 288.300781 L 385.320312 288.84375 " fill-opacity="1" fill-rule="nonzero"/><path fill="#ffffff" d="M 388.085938 291.652344 L 385.234375 289.582031 L 386.269531 288.160156 " fill-opacity="1" fill-rule="nonzero"/><path fill="#ffffff" d="M 383.945312 291.652344 L 386.796875 289.582031 L 385.761719 288.160156 " fill-opacity="1" fill-rule="nonzero"/><path fill="#ffffff" d="M 383.945312 291.652344 L 385.035156 288.300781 L 386.710938 288.84375 " fill-opacity="1" fill-rule="nonzero"/><path fill="#ffffff" d="M 352.5 345.019531 L 350.867188 350.039062 L 353.378906 350.855469 " fill-opacity="1" fill-rule="nonzero"/><path fill="#ffffff" d="M 352.5 345.019531 L 354.132812 350.039062 L 351.621094 350.855469 " fill-opacity="1" fill-rule="nonzero"/><path fill="#ffffff" d="M 357.519531 348.667969 L 352.238281 348.667969 C 352.238281 348.667969 352.238281 351.304688 352.238281 351.304688 " fill-opacity="1" fill-rule="nonzero"/><path fill="#ffffff" d="M 357.519531 348.667969 L 353.246094 351.769531 L 351.699219 349.636719 " fill-opacity="1" fill-rule="nonzero"/><path fill="#ffffff" d="M 347.480469 348.667969 L 351.753906 351.769531 L 353.300781 349.636719 " fill-opacity="1" fill-rule="nonzero"/><path fill="#ffffff" d="M 347.480469 348.667969 L 352.761719 348.667969 C 352.761719 348.667969 352.761719 351.304688 352.761719 351.304688 " fill-opacity="1" fill-rule="nonzero"/><path fill="#ffffff" d="M 355.605469 354.570312 L 353.972656 349.554688 L 351.457031 350.371094 " fill-opacity="1" fill-rule="nonzero"/><path fill="#ffffff" d="M 355.605469 354.570312 L 351.332031 351.46875 L 352.878906 349.335938 " fill-opacity="1" fill-rule="nonzero"/><path fill="#ffffff" d="M 349.394531 354.570312 L 353.667969 351.46875 L 352.121094 349.335938 " fill-opacity="1" fill-rule="nonzero"/><path fill="#ffffff" d="M 349.394531 354.570312 L 351.027344 349.554688 L 353.542969 350.371094 " fill-opacity="1" fill-rule="nonzero"/><path fill="#ffffff" d="M 366.746094 321.4375 L 365.386719 325.617188 L 367.476562 326.300781 " fill-opacity="1" fill-rule="nonzero"/><path fill="#ffffff" d="M 366.746094 321.4375 L 368.101562 325.617188 L 366.011719 326.300781 " fill-opacity="1" fill-rule="nonzero"/><path fill="#ffffff" d="M 370.925781 324.476562 L 366.527344 324.476562 L 366.527344 326.679688 " fill-opacity="1" fill-rule="nonzero"/><path fill="#ffffff" d="M 370.925781 324.476562 L 367.363281 327.058594 L 366.070312 325.277344 " fill-opacity="1" fill-rule="nonzero"/><path fill="#ffffff" d="M 362.558594 324.476562 L 366.117188 327.058594 L 367.414062 325.277344 " fill-opacity="1" fill-rule="nonzero"/><path fill="#ffffff" d="M 362.558594 324.476562 L 366.957031 324.476562 L 366.957031 326.679688 " fill-opacity="1" fill-rule="nonzero"/><path fill="#ffffff" d="M 369.328125 329.394531 L 367.96875 325.214844 L 365.878906 325.898438 " fill-opacity="1" fill-rule="nonzero"/><path fill="#ffffff" d="M 369.328125 329.394531 L 365.765625 326.8125 L 367.0625 325.03125 " fill-opacity="1" fill-rule="nonzero"/><path fill="#ffffff" d="M 364.15625 329.394531 L 367.714844 326.8125 L 366.421875 325.03125 " fill-opacity="1" fill-rule="nonzero"/><path fill="#ffffff" d="M 364.15625 329.394531 L 365.511719 325.214844 L 367.605469 325.898438 " fill-opacity="1" fill-rule="nonzero"/><path fill="#ffffff" d="M 352.5 310.378906 L 351.140625 314.558594 L 353.230469 315.242188 " fill-opacity="1" fill-rule="nonzero"/><path fill="#ffffff" d="M 352.5 310.378906 L 353.859375 314.558594 L 351.769531 315.242188 " fill-opacity="1" fill-rule="nonzero"/><path fill="#ffffff" d="M 356.679688 313.414062 L 352.28125 313.414062 L 352.28125 315.617188 " fill-opacity="1" fill-rule="nonzero"/><path fill="#ffffff" d="M 356.679688 313.414062 L 353.121094 315.996094 L 351.824219 314.214844 " fill-opacity="1" fill-rule="nonzero"/><path fill="#ffffff" d="M 348.320312 313.414062 L 351.878906 315.996094 L 353.175781 314.214844 " fill-opacity="1" fill-rule="nonzero"/><path fill="#ffffff" d="M 348.320312 313.414062 L 352.71875 313.414062 L 352.71875 315.617188 " fill-opacity="1" fill-rule="nonzero"/><path fill="#ffffff" d="M 355.082031 318.332031 L 353.726562 314.152344 L 351.632812 314.835938 " fill-opacity="1" fill-rule="nonzero"/><path fill="#ffffff" d="M 355.082031 318.332031 L 351.523438 315.75 L 352.816406 313.96875 " fill-opacity="1" fill-rule="nonzero"/><path fill="#ffffff" d="M 349.917969 318.332031 L 353.476562 315.75 L 352.183594 313.96875 " fill-opacity="1" fill-rule="nonzero"/><path fill="#ffffff" d="M 349.917969 318.332031 L 351.273438 314.152344 L 353.367188 314.835938 " fill-opacity="1" fill-rule="nonzero"/><path fill="#ffffff" d="M 340.097656 322.316406 L 339.007812 325.664062 L 340.683594 326.207031 " fill-opacity="1" fill-rule="nonzero"/><path fill="#ffffff" d="M 340.097656 322.316406 L 341.191406 325.664062 L 339.515625 326.207031 " fill-opacity="1" fill-rule="nonzero"/><path fill="#ffffff" d="M 343.449219 324.742188 L 339.929688 324.742188 C 339.929688 324.742188 339.929688 326.503906 339.929688 326.503906 " fill-opacity="1" fill-rule="nonzero"/><path fill="#ffffff" d="M 343.449219 324.742188 L 340.597656 326.8125 L 339.5625 325.390625 " fill-opacity="1" fill-rule="nonzero"/><path fill="#ffffff" d="M 336.753906 324.742188 L 339.605469 326.8125 L 340.640625 325.390625 " fill-opacity="1" fill-rule="nonzero"/><path fill="#ffffff" d="M 336.753906 324.742188 L 340.273438 324.742188 C 340.273438 324.742188 340.273438 326.503906 340.273438 326.503906 " fill-opacity="1" fill-rule="nonzero"/><path fill="#ffffff" d="M 342.167969 328.679688 L 341.078125 325.328125 L 339.402344 325.871094 " fill-opacity="1" fill-rule="nonzero"/><path fill="#ffffff" d="M 342.167969 328.679688 L 339.316406 326.609375 L 340.351562 325.1875 " fill-opacity="1" fill-rule="nonzero"/><path fill="#ffffff" d="M 338.03125 328.679688 L 340.878906 326.609375 L 339.84375 325.1875 " fill-opacity="1" fill-rule="nonzero"/><path fill="#ffffff" d="M 338.03125 328.679688 L 339.121094 325.328125 L 340.796875 325.871094 " fill-opacity="1" fill-rule="nonzero"/><path fill="#ffffff" d="M 346.300781 331.867188 L 345.523438 334.257812 L 346.722656 334.644531 " fill-opacity="1" fill-rule="nonzero"/><path fill="#ffffff" d="M 346.300781 331.867188 L 347.074219 334.257812 L 345.878906 334.644531 " fill-opacity="1" fill-rule="nonzero"/><path fill="#ffffff" d="M 348.691406 333.605469 L 346.179688 333.605469 C 346.179688 333.605469 346.179688 334.863281 346.179688 334.863281 " fill-opacity="1" fill-rule="nonzero"/><path fill="#ffffff" d="M 348.691406 333.605469 L 346.660156 335.082031 L 345.917969 334.070312 " fill-opacity="1" fill-rule="nonzero"/><path fill="#ffffff" d="M 343.90625 333.605469 L 345.941406 335.082031 L 346.679688 334.070312 " fill-opacity="1" fill-rule="nonzero"/><path fill="#ffffff" d="M 343.90625 333.605469 L 346.417969 333.605469 C 346.417969 333.605469 346.417969 334.863281 346.417969 334.863281 " fill-opacity="1" fill-rule="nonzero"/><path fill="#ffffff" d="M 347.777344 336.414062 L 347.003906 334.019531 L 345.808594 334.40625 " fill-opacity="1" fill-rule="nonzero"/><path fill="#ffffff" d="M 347.777344 336.414062 L 345.742188 334.933594 L 346.480469 333.921875 " fill-opacity="1" fill-rule="nonzero"/><path fill="#ffffff" d="M 344.820312 336.414062 L 346.855469 334.933594 L 346.117188 333.921875 " fill-opacity="1" fill-rule="nonzero"/><path fill="#ffffff" d="M 344.820312 336.414062 L 345.59375 334.019531 L 346.792969 334.40625 " fill-opacity="1" fill-rule="nonzero"/><path fill="#ffffff" d="M 389.367188 373.554688 L 388.007812 377.734375 L 390.097656 378.417969 " fill-opacity="1" fill-rule="nonzero"/><path fill="#ffffff" d="M 389.367188 373.554688 L 390.722656 377.734375 L 388.632812 378.417969 " fill-opacity="1" fill-rule="nonzero"/><path fill="#ffffff" d="M 393.554688 376.59375 L 389.15625 376.59375 L 389.15625 378.796875 " fill-opacity="1" fill-rule="nonzero"/><path fill="#ffffff" d="M 393.554688 376.59375 L 389.992188 379.175781 L 388.695312 377.394531 " fill-opacity="1" fill-rule="nonzero"/><path fill="#ffffff" d="M 385.183594 376.59375 L 388.746094 379.175781 L 390.042969 377.394531 " fill-opacity="1" fill-rule="nonzero"/><path fill="#ffffff" d="M 385.183594 376.59375 L 389.582031 376.59375 L 389.582031 378.796875 " fill-opacity="1" fill-rule="nonzero"/><path fill="#ffffff" d="M 391.949219 381.507812 L 390.589844 377.324219 L 388.5 378.007812 " fill-opacity="1" fill-rule="nonzero"/><path fill="#ffffff" d="M 391.949219 381.507812 L 388.386719 378.921875 L 389.683594 377.140625 " fill-opacity="1" fill-rule="nonzero"/><path fill="#ffffff" d="M 386.78125 381.507812 L 390.34375 378.921875 L 389.046875 377.140625 " fill-opacity="1" fill-rule="nonzero"/><path fill="#ffffff" d="M 386.78125 381.507812 L 388.140625 377.324219 L 390.230469 378.007812 " fill-opacity="1" fill-rule="nonzero"/><path fill="#ffffff" d="M 399.921875 363.539062 L 398.832031 366.886719 L 400.507812 367.429688 " fill-opacity="1" fill-rule="nonzero"/><path fill="#ffffff" d="M 399.921875 363.539062 L 401.011719 366.886719 L 399.339844 367.429688 " fill-opacity="1" fill-rule="nonzero"/><path fill="#ffffff" d="M 403.273438 365.972656 L 399.753906 365.972656 C 399.753906 365.972656 399.753906 367.734375 399.753906 367.734375 " fill-opacity="1" fill-rule="nonzero"/><path fill="#ffffff" d="M 403.273438 365.972656 L 400.421875 368.042969 L 399.386719 366.621094 " fill-opacity="1" fill-rule="nonzero"/><path fill="#ffffff" d="M 396.578125 365.972656 L 399.429688 368.042969 L 400.464844 366.621094 " fill-opacity="1" fill-rule="nonzero"/><path fill="#ffffff" d="M 396.578125 365.972656 L 400.097656 365.972656 C 400.097656 365.972656 400.097656 367.734375 400.097656 367.734375 " fill-opacity="1" fill-rule="nonzero"/><path fill="#ffffff" d="M 401.992188 369.90625 L 400.902344 366.558594 L 399.226562 367.097656 " fill-opacity="1" fill-rule="nonzero"/><path fill="#ffffff" d="M 401.992188 369.90625 L 399.140625 367.839844 L 400.175781 366.417969 " fill-opacity="1" fill-rule="nonzero"/><path fill="#ffffff" d="M 397.851562 369.90625 L 400.703125 367.839844 L 399.667969 366.417969 " fill-opacity="1" fill-rule="nonzero"/><path fill="#ffffff" d="M 397.851562 369.90625 L 398.945312 366.558594 L 400.621094 367.097656 " fill-opacity="1" fill-rule="nonzero"/><path fill="#ffffff" d="M 379.644531 360.527344 L 378.554688 363.875 L 380.230469 364.417969 " fill-opacity="1" fill-rule="nonzero"/><path fill="#ffffff" d="M 379.644531 360.527344 L 380.738281 363.875 L 379.0625 364.417969 " fill-opacity="1" fill-rule="nonzero"/><path fill="#ffffff" d="M 382.996094 362.953125 L 379.476562 362.953125 C 379.476562 362.953125 379.476562 364.714844 379.476562 364.714844 " fill-opacity="1" fill-rule="nonzero"/><path fill="#ffffff" d="M 382.996094 362.953125 L 380.144531 365.023438 L 379.109375 363.601562 " fill-opacity="1" fill-rule="nonzero"/><path fill="#ffffff" d="M 376.304688 362.953125 L 379.152344 365.023438 L 380.1875 363.601562 " fill-opacity="1" fill-rule="nonzero"/><path fill="#ffffff" d="M 376.304688 362.953125 L 379.820312 362.953125 C 379.820312 362.953125 379.820312 364.714844 379.820312 364.714844 " fill-opacity="1" fill-rule="nonzero"/><path fill="#ffffff" d="M 381.714844 366.886719 L 380.625 363.539062 L 378.949219 364.078125 " fill-opacity="1" fill-rule="nonzero"/><path fill="#ffffff" d="M 381.714844 366.886719 L 378.863281 364.820312 L 379.898438 363.398438 " fill-opacity="1" fill-rule="nonzero"/><path fill="#ffffff" d="M 377.578125 366.886719 L 380.425781 364.820312 L 379.390625 363.398438 " fill-opacity="1" fill-rule="nonzero"/><path fill="#ffffff" d="M 377.578125 366.886719 L 378.667969 363.539062 L 380.34375 364.078125 " fill-opacity="1" fill-rule="nonzero"/><path fill="#ffffff" d="M 303.0625 355.078125 L 301.429688 360.097656 L 303.945312 360.914062 " fill-opacity="1" fill-rule="nonzero"/><path fill="#ffffff" d="M 303.0625 355.078125 L 304.699219 360.097656 L 302.183594 360.914062 " fill-opacity="1" fill-rule="nonzero"/><path fill="#ffffff" d="M 308.082031 358.722656 L 302.804688 358.722656 C 302.804688 358.722656 302.804688 361.363281 302.804688 361.363281 " fill-opacity="1" fill-rule="nonzero"/><path fill="#ffffff" d="M 308.082031 358.722656 L 303.808594 361.828125 L 302.261719 359.695312 " fill-opacity="1" fill-rule="nonzero"/><path fill="#ffffff" d="M 298.046875 358.722656 L 302.320312 361.828125 L 303.867188 359.695312 " fill-opacity="1" fill-rule="nonzero"/><path fill="#ffffff" d="M 298.046875 358.722656 L 303.324219 358.722656 C 303.324219 358.722656 303.324219 361.363281 303.324219 361.363281 " fill-opacity="1" fill-rule="nonzero"/><path fill="#ffffff" d="M 306.167969 364.621094 L 304.535156 359.601562 L 302.023438 360.417969 " fill-opacity="1" fill-rule="nonzero"/><path fill="#ffffff" d="M 306.167969 364.621094 L 301.894531 361.519531 L 303.445312 359.386719 " fill-opacity="1" fill-rule="nonzero"/><path fill="#ffffff" d="M 299.960938 364.621094 L 304.234375 361.519531 L 302.683594 359.386719 " fill-opacity="1" fill-rule="nonzero"/><path fill="#ffffff" d="M 299.960938 364.621094 L 301.59375 359.601562 L 304.105469 360.417969 " fill-opacity="1" fill-rule="nonzero"/><path fill="#ffffff" d="M 352.5 388.234375 L 351.492188 391.339844 L 353.042969 391.84375 " fill-opacity="1" fill-rule="nonzero"/><path fill="#ffffff" d="M 352.5 388.234375 L 353.507812 391.339844 L 351.957031 391.84375 " fill-opacity="1" fill-rule="nonzero"/><path fill="#ffffff" d="M 355.605469 390.492188 L 352.339844 390.492188 C 352.339844 390.492188 352.339844 392.125 352.339844 392.125 " fill-opacity="1" fill-rule="nonzero"/><path fill="#ffffff" d="M 355.605469 390.492188 L 352.964844 392.40625 L 352.007812 391.09375 " fill-opacity="1" fill-rule="nonzero"/><path fill="#ffffff" d="M 349.394531 390.492188 L 352.035156 392.40625 L 352.992188 391.09375 " fill-opacity="1" fill-rule="nonzero"/><path fill="#ffffff" d="M 349.394531 390.492188 L 352.660156 390.492188 C 352.660156 390.492188 352.660156 392.125 352.660156 392.125 " fill-opacity="1" fill-rule="nonzero"/><path fill="#ffffff" d="M 354.414062 394.140625 L 353.40625 391.035156 L 351.859375 391.542969 " fill-opacity="1" fill-rule="nonzero"/><path fill="#ffffff" d="M 354.414062 394.140625 L 351.773438 392.226562 L 352.730469 390.910156 " fill-opacity="1" fill-rule="nonzero"/><path fill="#ffffff" d="M 350.585938 394.140625 L 353.226562 392.226562 L 352.269531 390.910156 " fill-opacity="1" fill-rule="nonzero"/><path fill="#ffffff" d="M 350.585938 394.140625 L 351.59375 391.035156 L 353.140625 391.542969 " fill-opacity="1" fill-rule="nonzero"/></svg>